<?xml version="1.0" encoding="UTF-8" standalone="no"?><svg xmlns="http://www.w3.org/2000/svg" xmlns:xlink="http://www.w3.org/1999/xlink" contentScriptType="application/ecmascript" contentStyleType="text/css" height="844px" preserveAspectRatio="none" style="width:1885px;height:844px;" version="1.1" viewBox="0 0 1885 844" width="1885px" zoomAndPan="magnify"><defs><filter height="300%" id="f1kp5wcn8en4vy" width="300%" x="-1" y="-1"><feGaussianBlur result="blurOut" stdDeviation="2.0"/><feColorMatrix in="blurOut" result="blurOut2" type="matrix" values="0 0 0 0 0 0 0 0 0 0 0 0 0 0 0 0 0 0 .4 0"/><feOffset dx="4.0" dy="4.0" in="blurOut2" result="blurOut3"/><feBlend in="SourceGraphic" in2="blurOut3" mode="normal"/></filter></defs><g><!--MD5=[b887cf1b6732c2da6b2473101c66933d]
class Alumno--><rect codeLine="1" fill="#FEFECE" filter="url(#f1kp5wcn8en4vy)" height="60.8047" id="Alumno" style="stroke: #A80036; stroke-width: 1.5;" width="93" x="1402.5" y="217.5"/><ellipse cx="1425.15" cy="233.5" fill="#ADD1B2" rx="11" ry="11" style="stroke: #A80036; stroke-width: 1.0;"/><path d="M1427.4938,229.1719 C1426.5563,228.7344 1425.9625,228.5938 1425.0875,228.5938 C1422.4625,228.5938 1420.4625,230.6719 1420.4625,233.3906 L1420.4625,234.5156 C1420.4625,237.0938 1422.5719,238.9844 1425.4625,238.9844 C1426.6813,238.9844 1427.8375,238.6875 1428.5875,238.1406 C1429.1656,237.7344 1429.4938,237.2813 1429.4938,236.8906 C1429.4938,236.4375 1429.1031,236.0469 1428.6344,236.0469 C1428.4156,236.0469 1428.2125,236.125 1428.025,236.3125 C1427.5719,236.7969 1427.5719,236.7969 1427.3844,236.8906 C1426.9625,237.1563 1426.275,237.2813 1425.5094,237.2813 C1423.4625,237.2813 1422.1656,236.1875 1422.1656,234.4844 L1422.1656,233.3906 C1422.1656,231.6094 1423.4156,230.2969 1425.15,230.2969 C1425.7281,230.2969 1426.3375,230.4531 1426.8063,230.7031 C1427.2906,230.9844 1427.4625,231.2031 1427.5563,231.6094 C1427.6188,232.0156 1427.65,232.1406 1427.7906,232.2656 C1427.9313,232.4063 1428.1656,232.5156 1428.3844,232.5156 C1428.65,232.5156 1428.9156,232.375 1429.0875,232.1563 C1429.1969,232 1429.2281,231.8125 1429.2281,231.3906 L1429.2281,229.9688 C1429.2281,229.5313 1429.2125,229.4063 1429.1188,229.25 C1428.9625,228.9844 1428.6813,228.8438 1428.3844,228.8438 C1428.0875,228.8438 1427.8844,228.9375 1427.6656,229.25 L1427.4938,229.1719 Z "/><text fill="#000000" font-family="sans-serif" font-size="12" lengthAdjust="spacingAndGlyphs" textLength="44" x="1440.85" y="237.6543">Alumno</text><line style="stroke: #A80036; stroke-width: 1.5;" x1="1403.5" x2="1494.5" y1="249.5" y2="249.5"/><text fill="#000000" font-family="sans-serif" font-size="11" lengthAdjust="spacingAndGlyphs" textLength="81" x="1408.5" y="263.7104">String nombre</text><line style="stroke: #A80036; stroke-width: 1.5;" x1="1403.5" x2="1494.5" y1="270.3047" y2="270.3047"/><!--MD5=[69268330f0a536610f2ee0ac17577904]
class Examen--><rect codeLine="5" fill="#FEFECE" filter="url(#f1kp5wcn8en4vy)" height="86.4141" id="Examen" style="stroke: #A80036; stroke-width: 1.5;" width="160" x="1531" y="205"/><ellipse cx="1583.25" cy="221" fill="#ADD1B2" rx="11" ry="11" style="stroke: #A80036; stroke-width: 1.0;"/><path d="M1585.5938,216.6719 C1584.6563,216.2344 1584.0625,216.0938 1583.1875,216.0938 C1580.5625,216.0938 1578.5625,218.1719 1578.5625,220.8906 L1578.5625,222.0156 C1578.5625,224.5938 1580.6719,226.4844 1583.5625,226.4844 C1584.7813,226.4844 1585.9375,226.1875 1586.6875,225.6406 C1587.2656,225.2344 1587.5938,224.7813 1587.5938,224.3906 C1587.5938,223.9375 1587.2031,223.5469 1586.7344,223.5469 C1586.5156,223.5469 1586.3125,223.625 1586.125,223.8125 C1585.6719,224.2969 1585.6719,224.2969 1585.4844,224.3906 C1585.0625,224.6563 1584.375,224.7813 1583.6094,224.7813 C1581.5625,224.7813 1580.2656,223.6875 1580.2656,221.9844 L1580.2656,220.8906 C1580.2656,219.1094 1581.5156,217.7969 1583.25,217.7969 C1583.8281,217.7969 1584.4375,217.9531 1584.9063,218.2031 C1585.3906,218.4844 1585.5625,218.7031 1585.6563,219.1094 C1585.7188,219.5156 1585.75,219.6406 1585.8906,219.7656 C1586.0313,219.9063 1586.2656,220.0156 1586.4844,220.0156 C1586.75,220.0156 1587.0156,219.875 1587.1875,219.6563 C1587.2969,219.5 1587.3281,219.3125 1587.3281,218.8906 L1587.3281,217.4688 C1587.3281,217.0313 1587.3125,216.9063 1587.2188,216.75 C1587.0625,216.4844 1586.7813,216.3438 1586.4844,216.3438 C1586.1875,216.3438 1585.9844,216.4375 1585.7656,216.75 L1585.5938,216.6719 Z "/><text fill="#000000" font-family="sans-serif" font-size="12" lengthAdjust="spacingAndGlyphs" textLength="47" x="1603.75" y="225.1543">Examen</text><line style="stroke: #A80036; stroke-width: 1.5;" x1="1532" x2="1690" y1="237" y2="237"/><text fill="#000000" font-family="sans-serif" font-size="11" lengthAdjust="spacingAndGlyphs" textLength="148" x="1537" y="251.2104">List&lt;Pregunta&gt; preguntas</text><text fill="#000000" font-family="sans-serif" font-size="11" lengthAdjust="spacingAndGlyphs" textLength="110" x="1537" y="264.0151">Integer notaMinima</text><text fill="#000000" font-family="sans-serif" font-size="11" lengthAdjust="spacingAndGlyphs" textLength="136" x="1537" y="276.8198">CriterioNota criterioNota</text><line style="stroke: #A80036; stroke-width: 1.5;" x1="1532" x2="1690" y1="283.4141" y2="283.4141"/><!--MD5=[b7c285b4ea88783bf6a29ac976a08111]
class ExamenResuelto--><rect codeLine="11" fill="#FEFECE" filter="url(#f1kp5wcn8en4vy)" height="137.6328" id="ExamenResuelto" style="stroke: #A80036; stroke-width: 1.5;" width="335" x="1443.5" y="7"/><ellipse cx="1557.25" cy="23" fill="#ADD1B2" rx="11" ry="11" style="stroke: #A80036; stroke-width: 1.0;"/><path d="M1559.5938,18.6719 C1558.6563,18.2344 1558.0625,18.0938 1557.1875,18.0938 C1554.5625,18.0938 1552.5625,20.1719 1552.5625,22.8906 L1552.5625,24.0156 C1552.5625,26.5938 1554.6719,28.4844 1557.5625,28.4844 C1558.7813,28.4844 1559.9375,28.1875 1560.6875,27.6406 C1561.2656,27.2344 1561.5938,26.7813 1561.5938,26.3906 C1561.5938,25.9375 1561.2031,25.5469 1560.7344,25.5469 C1560.5156,25.5469 1560.3125,25.625 1560.125,25.8125 C1559.6719,26.2969 1559.6719,26.2969 1559.4844,26.3906 C1559.0625,26.6563 1558.375,26.7813 1557.6094,26.7813 C1555.5625,26.7813 1554.2656,25.6875 1554.2656,23.9844 L1554.2656,22.8906 C1554.2656,21.1094 1555.5156,19.7969 1557.25,19.7969 C1557.8281,19.7969 1558.4375,19.9531 1558.9063,20.2031 C1559.3906,20.4844 1559.5625,20.7031 1559.6563,21.1094 C1559.7188,21.5156 1559.75,21.6406 1559.8906,21.7656 C1560.0313,21.9063 1560.2656,22.0156 1560.4844,22.0156 C1560.75,22.0156 1561.0156,21.875 1561.1875,21.6563 C1561.2969,21.5 1561.3281,21.3125 1561.3281,20.8906 L1561.3281,19.4688 C1561.3281,19.0313 1561.3125,18.9063 1561.2188,18.75 C1561.0625,18.4844 1560.7813,18.3438 1560.4844,18.3438 C1560.1875,18.3438 1559.9844,18.4375 1559.7656,18.75 L1559.5938,18.6719 Z "/><text fill="#000000" font-family="sans-serif" font-size="12" lengthAdjust="spacingAndGlyphs" textLength="99" x="1577.75" y="27.1543">ExamenResuelto</text><line style="stroke: #A80036; stroke-width: 1.5;" x1="1444.5" x2="1777.5" y1="39" y2="39"/><text fill="#000000" font-family="sans-serif" font-size="11" lengthAdjust="spacingAndGlyphs" textLength="89" x="1449.5" y="53.2104">Alumno alumno</text><text fill="#000000" font-family="sans-serif" font-size="11" lengthAdjust="spacingAndGlyphs" textLength="99" x="1449.5" y="66.0151">Examen examen</text><text fill="#000000" font-family="sans-serif" font-size="11" lengthAdjust="spacingAndGlyphs" textLength="214" x="1449.5" y="78.8198">List&lt;RespuestaPregunta&gt; respuestas</text><line style="stroke: #A80036; stroke-width: 1.5;" x1="1444.5" x2="1777.5" y1="85.4141" y2="85.4141"/><text fill="#000000" font-family="sans-serif" font-size="11" lengthAdjust="spacingAndGlyphs" textLength="323" x="1449.5" y="99.6245">void addRespuesta(Pregunta pregunta, String respuesta)</text><text fill="#000000" font-family="sans-serif" font-size="11" lengthAdjust="spacingAndGlyphs" textLength="114" x="1449.5" y="112.4292">Integer getPuntaje()</text><text fill="#000000" font-family="sans-serif" font-size="11" lengthAdjust="spacingAndGlyphs" textLength="98" x="1449.5" y="125.2339">Integer getNota()</text><text fill="#000000" font-family="sans-serif" font-size="11" lengthAdjust="spacingAndGlyphs" textLength="112" x="1449.5" y="138.0386">Boolean aprobado()</text><!--MD5=[4e4cd93010cbb368adc545e856d87476]
class CriterioNota--><rect codeLine="22" fill="#FEFECE" filter="url(#f1kp5wcn8en4vy)" height="60.8047" id="CriterioNota" style="stroke: #A80036; stroke-width: 1.5;" width="304" x="727" y="363.5"/><ellipse cx="839.25" cy="379.5" fill="#B4A7E5" rx="11" ry="11" style="stroke: #A80036; stroke-width: 1.0;"/><path d="M840.2031,376.2813 L841.9219,376.2813 C842.3125,376.2813 842.5,376.25 842.625,376.1719 C842.8906,376.0156 843.0313,375.7344 843.0313,375.4375 C843.0313,375.1719 842.9219,374.9063 842.6875,374.7344 C842.5156,374.625 842.375,374.5938 841.9219,374.5938 L836.7813,374.5938 C836.3438,374.5938 836.2188,374.6094 836.0625,374.7031 C835.8125,374.8594 835.6563,375.1563 835.6563,375.4375 C835.6563,375.7188 835.7969,375.9688 836.0156,376.1406 C836.1719,376.25 836.3594,376.2813 836.7813,376.2813 L838.5,376.2813 L838.5,382.7969 L836.7813,382.7969 C836.3438,382.7969 836.2188,382.8125 836.0625,382.9219 C835.8125,383.0781 835.6563,383.3594 835.6563,383.6563 C835.6563,383.9063 835.7969,384.1719 836.0156,384.3281 C836.1719,384.4531 836.375,384.5 836.7813,384.5 L841.9219,384.5 C842.6719,384.5 843.0313,384.2188 843.0313,383.6563 C843.0313,383.375 842.9219,383.125 842.6875,382.9531 C842.5156,382.8281 842.375,382.7969 841.9219,382.7969 L840.2031,382.7969 L840.2031,376.2813 Z "/><text fill="#000000" font-family="sans-serif" font-size="12" font-style="italic" lengthAdjust="spacingAndGlyphs" textLength="71" x="859.75" y="383.6543">CriterioNota</text><line style="stroke: #A80036; stroke-width: 1.5;" x1="728" x2="1030" y1="395.5" y2="395.5"/><line style="stroke: #A80036; stroke-width: 1.5;" x1="728" x2="1030" y1="403.5" y2="403.5"/><text fill="#000000" font-family="sans-serif" font-size="11" lengthAdjust="spacingAndGlyphs" textLength="292" x="733" y="417.7104">Integer getNota(Examen examen, Integer puntaje)</text><!--MD5=[15825634ec38dea3708d78aa305beabc]
class NotaPromedio--><rect codeLine="26" fill="#FEFECE" filter="url(#f1kp5wcn8en4vy)" height="60.8047" id="NotaPromedio" style="stroke: #A80036; stroke-width: 1.5;" width="304" x="7" y="656"/><ellipse cx="112.75" cy="672" fill="#ADD1B2" rx="11" ry="11" style="stroke: #A80036; stroke-width: 1.0;"/><path d="M115.0938,667.6719 C114.1563,667.2344 113.5625,667.0938 112.6875,667.0938 C110.0625,667.0938 108.0625,669.1719 108.0625,671.8906 L108.0625,673.0156 C108.0625,675.5938 110.1719,677.4844 113.0625,677.4844 C114.2813,677.4844 115.4375,677.1875 116.1875,676.6406 C116.7656,676.2344 117.0938,675.7813 117.0938,675.3906 C117.0938,674.9375 116.7031,674.5469 116.2344,674.5469 C116.0156,674.5469 115.8125,674.625 115.625,674.8125 C115.1719,675.2969 115.1719,675.2969 114.9844,675.3906 C114.5625,675.6563 113.875,675.7813 113.1094,675.7813 C111.0625,675.7813 109.7656,674.6875 109.7656,672.9844 L109.7656,671.8906 C109.7656,670.1094 111.0156,668.7969 112.75,668.7969 C113.3281,668.7969 113.9375,668.9531 114.4063,669.2031 C114.8906,669.4844 115.0625,669.7031 115.1563,670.1094 C115.2188,670.5156 115.25,670.6406 115.3906,670.7656 C115.5313,670.9063 115.7656,671.0156 115.9844,671.0156 C116.25,671.0156 116.5156,670.875 116.6875,670.6563 C116.7969,670.5 116.8281,670.3125 116.8281,669.8906 L116.8281,668.4688 C116.8281,668.0313 116.8125,667.9063 116.7188,667.75 C116.5625,667.4844 116.2813,667.3438 115.9844,667.3438 C115.6875,667.3438 115.4844,667.4375 115.2656,667.75 L115.0938,667.6719 Z "/><text fill="#000000" font-family="sans-serif" font-size="12" lengthAdjust="spacingAndGlyphs" textLength="84" x="133.25" y="676.1543">NotaPromedio</text><line style="stroke: #A80036; stroke-width: 1.5;" x1="8" x2="310" y1="688" y2="688"/><line style="stroke: #A80036; stroke-width: 1.5;" x1="8" x2="310" y1="696" y2="696"/><text fill="#000000" font-family="sans-serif" font-size="11" lengthAdjust="spacingAndGlyphs" textLength="292" x="13" y="710.2104">Integer getNota(Examen examen, Integer puntaje)</text><!--MD5=[61e83df1d9f17625102c549a04aebbce]
class CriterioCompuesto--><rect codeLine="48" fill="#FEFECE" filter="url(#f1kp5wcn8en4vy)" height="73.6094" id="CriterioCompuesto" style="stroke: #A80036; stroke-width: 1.5;" width="369" x="143.5" y="509.5"/><ellipse cx="268.25" cy="525.5" fill="#A9DCDF" rx="11" ry="11" style="stroke: #A80036; stroke-width: 1.0;"/><path d="M270.3281,527.3125 L270.7188,528.2969 L270.3281,528.2969 C269.875,528.2969 269.7656,528.3125 269.6094,528.4219 C269.3594,528.5781 269.2031,528.8594 269.2031,529.1563 C269.2031,529.4219 269.3438,529.6719 269.5625,529.8281 C269.7031,529.9531 269.9063,530 270.3281,530 L272.6875,530 C273.0469,530 273.2656,529.9688 273.4063,529.875 C273.6563,529.7344 273.8125,529.4375 273.8125,529.1563 C273.8125,528.875 273.6719,528.625 273.4531,528.4688 C273.2813,528.3281 273.125,528.2969 272.6563,528.2969 L269.2656,520.0938 L265.5938,520.0938 C265.1406,520.0938 265.0156,520.1094 264.8594,520.2031 C264.6094,520.375 264.4531,520.6563 264.4531,520.9375 C264.4531,521.2188 264.5938,521.4688 264.8125,521.6406 C264.9844,521.75 265.1563,521.7813 265.5938,521.7813 L266.6719,521.7813 L264.0313,528.2969 C263.6094,528.2969 263.4531,528.3125 263.2969,528.4219 C263.0469,528.5781 262.8906,528.8594 262.8906,529.1563 C262.8906,529.7188 263.2656,530 264.0156,530 L266.2813,530 C266.6406,530 266.8594,529.9688 266.9844,529.875 C267.25,529.7344 267.3906,529.4375 267.3906,529.1563 C267.3906,528.875 267.2656,528.625 267.0469,528.4531 C266.875,528.3281 266.7344,528.2969 266.2813,528.2969 L265.8906,528.2969 L266.2813,527.3125 L270.3281,527.3125 Z M269.625,525.6094 L266.9531,525.6094 L268.2969,522.3438 L269.625,525.6094 Z "/><text fill="#000000" font-family="sans-serif" font-size="12" font-style="italic" lengthAdjust="spacingAndGlyphs" textLength="111" x="288.75" y="529.6543">CriterioCompuesto</text><line style="stroke: #A80036; stroke-width: 1.5;" x1="144.5" x2="511.5" y1="541.5" y2="541.5"/><text fill="#000000" font-family="sans-serif" font-size="11" lengthAdjust="spacingAndGlyphs" textLength="153" x="149.5" y="555.7104">List&lt;CriterioNota&gt; criterios</text><line style="stroke: #A80036; stroke-width: 1.5;" x1="144.5" x2="511.5" y1="562.3047" y2="562.3047"/><text fill="#000000" font-family="sans-serif" font-size="11" lengthAdjust="spacingAndGlyphs" textLength="357" x="149.5" y="576.5151">IntStream notasDeCriterios(Examen examen, Integer puntaje)</text><!--MD5=[fd585bf0fff08d9b63803e66a4c824e0]
class NotaMasAlta--><rect codeLine="30" fill="#FEFECE" filter="url(#f1kp5wcn8en4vy)" height="60.8047" id="NotaMasAlta" style="stroke: #A80036; stroke-width: 1.5;" width="304" x="346" y="656"/><ellipse cx="457.25" cy="672" fill="#ADD1B2" rx="11" ry="11" style="stroke: #A80036; stroke-width: 1.0;"/><path d="M459.5938,667.6719 C458.6563,667.2344 458.0625,667.0938 457.1875,667.0938 C454.5625,667.0938 452.5625,669.1719 452.5625,671.8906 L452.5625,673.0156 C452.5625,675.5938 454.6719,677.4844 457.5625,677.4844 C458.7813,677.4844 459.9375,677.1875 460.6875,676.6406 C461.2656,676.2344 461.5938,675.7813 461.5938,675.3906 C461.5938,674.9375 461.2031,674.5469 460.7344,674.5469 C460.5156,674.5469 460.3125,674.625 460.125,674.8125 C459.6719,675.2969 459.6719,675.2969 459.4844,675.3906 C459.0625,675.6563 458.375,675.7813 457.6094,675.7813 C455.5625,675.7813 454.2656,674.6875 454.2656,672.9844 L454.2656,671.8906 C454.2656,670.1094 455.5156,668.7969 457.25,668.7969 C457.8281,668.7969 458.4375,668.9531 458.9063,669.2031 C459.3906,669.4844 459.5625,669.7031 459.6563,670.1094 C459.7188,670.5156 459.75,670.6406 459.8906,670.7656 C460.0313,670.9063 460.2656,671.0156 460.4844,671.0156 C460.75,671.0156 461.0156,670.875 461.1875,670.6563 C461.2969,670.5 461.3281,670.3125 461.3281,669.8906 L461.3281,668.4688 C461.3281,668.0313 461.3125,667.9063 461.2188,667.75 C461.0625,667.4844 460.7813,667.3438 460.4844,667.3438 C460.1875,667.3438 459.9844,667.4375 459.7656,667.75 L459.5938,667.6719 Z "/><text fill="#000000" font-family="sans-serif" font-size="12" lengthAdjust="spacingAndGlyphs" textLength="73" x="477.75" y="676.1543">NotaMasAlta</text><line style="stroke: #A80036; stroke-width: 1.5;" x1="347" x2="649" y1="688" y2="688"/><line style="stroke: #A80036; stroke-width: 1.5;" x1="347" x2="649" y1="696" y2="696"/><text fill="#000000" font-family="sans-serif" font-size="11" lengthAdjust="spacingAndGlyphs" textLength="292" x="352" y="710.2104">Integer getNota(Examen examen, Integer puntaje)</text><!--MD5=[37e95b0e96f9533f7af01ee368678656]
class NotaReglaTres--><rect codeLine="34" fill="#FEFECE" filter="url(#f1kp5wcn8en4vy)" height="60.8047" id="NotaReglaTres" style="stroke: #A80036; stroke-width: 1.5;" width="304" x="548" y="516"/><ellipse cx="652.25" cy="532" fill="#ADD1B2" rx="11" ry="11" style="stroke: #A80036; stroke-width: 1.0;"/><path d="M654.5938,527.6719 C653.6563,527.2344 653.0625,527.0938 652.1875,527.0938 C649.5625,527.0938 647.5625,529.1719 647.5625,531.8906 L647.5625,533.0156 C647.5625,535.5938 649.6719,537.4844 652.5625,537.4844 C653.7813,537.4844 654.9375,537.1875 655.6875,536.6406 C656.2656,536.2344 656.5938,535.7813 656.5938,535.3906 C656.5938,534.9375 656.2031,534.5469 655.7344,534.5469 C655.5156,534.5469 655.3125,534.625 655.125,534.8125 C654.6719,535.2969 654.6719,535.2969 654.4844,535.3906 C654.0625,535.6563 653.375,535.7813 652.6094,535.7813 C650.5625,535.7813 649.2656,534.6875 649.2656,532.9844 L649.2656,531.8906 C649.2656,530.1094 650.5156,528.7969 652.25,528.7969 C652.8281,528.7969 653.4375,528.9531 653.9063,529.2031 C654.3906,529.4844 654.5625,529.7031 654.6563,530.1094 C654.7188,530.5156 654.75,530.6406 654.8906,530.7656 C655.0313,530.9063 655.2656,531.0156 655.4844,531.0156 C655.75,531.0156 656.0156,530.875 656.1875,530.6563 C656.2969,530.5 656.3281,530.3125 656.3281,529.8906 L656.3281,528.4688 C656.3281,528.0313 656.3125,527.9063 656.2188,527.75 C656.0625,527.4844 655.7813,527.3438 655.4844,527.3438 C655.1875,527.3438 654.9844,527.4375 654.7656,527.75 L654.5938,527.6719 Z "/><text fill="#000000" font-family="sans-serif" font-size="12" lengthAdjust="spacingAndGlyphs" textLength="87" x="672.75" y="536.1543">NotaReglaTres</text><line style="stroke: #A80036; stroke-width: 1.5;" x1="549" x2="851" y1="548" y2="548"/><line style="stroke: #A80036; stroke-width: 1.5;" x1="549" x2="851" y1="556" y2="556"/><text fill="#000000" font-family="sans-serif" font-size="11" lengthAdjust="spacingAndGlyphs" textLength="292" x="554" y="570.2104">Integer getNota(Examen examen, Integer puntaje)</text><!--MD5=[435bb51cbaa68ac7ada69c1450f60c62]
class NotaResta--><rect codeLine="38" fill="#FEFECE" filter="url(#f1kp5wcn8en4vy)" height="73.6094" id="NotaResta" style="stroke: #A80036; stroke-width: 1.5;" width="341" x="887.5" y="509.5"/><ellipse cx="1023.75" cy="525.5" fill="#ADD1B2" rx="11" ry="11" style="stroke: #A80036; stroke-width: 1.0;"/><path d="M1026.0938,521.1719 C1025.1563,520.7344 1024.5625,520.5938 1023.6875,520.5938 C1021.0625,520.5938 1019.0625,522.6719 1019.0625,525.3906 L1019.0625,526.5156 C1019.0625,529.0938 1021.1719,530.9844 1024.0625,530.9844 C1025.2813,530.9844 1026.4375,530.6875 1027.1875,530.1406 C1027.7656,529.7344 1028.0938,529.2813 1028.0938,528.8906 C1028.0938,528.4375 1027.7031,528.0469 1027.2344,528.0469 C1027.0156,528.0469 1026.8125,528.125 1026.625,528.3125 C1026.1719,528.7969 1026.1719,528.7969 1025.9844,528.8906 C1025.5625,529.1563 1024.875,529.2813 1024.1094,529.2813 C1022.0625,529.2813 1020.7656,528.1875 1020.7656,526.4844 L1020.7656,525.3906 C1020.7656,523.6094 1022.0156,522.2969 1023.75,522.2969 C1024.3281,522.2969 1024.9375,522.4531 1025.4063,522.7031 C1025.8906,522.9844 1026.0625,523.2031 1026.1563,523.6094 C1026.2188,524.0156 1026.25,524.1406 1026.3906,524.2656 C1026.5313,524.4063 1026.7656,524.5156 1026.9844,524.5156 C1027.25,524.5156 1027.5156,524.375 1027.6875,524.1563 C1027.7969,524 1027.8281,523.8125 1027.8281,523.3906 L1027.8281,521.9688 C1027.8281,521.5313 1027.8125,521.4063 1027.7188,521.25 C1027.5625,520.9844 1027.2813,520.8438 1026.9844,520.8438 C1026.6875,520.8438 1026.4844,520.9375 1026.2656,521.25 L1026.0938,521.1719 Z "/><text fill="#000000" font-family="sans-serif" font-size="12" lengthAdjust="spacingAndGlyphs" textLength="60" x="1044.25" y="529.6543">NotaResta</text><line style="stroke: #A80036; stroke-width: 1.5;" x1="888.5" x2="1227.5" y1="541.5" y2="541.5"/><text fill="#000000" font-family="sans-serif" font-size="11" lengthAdjust="spacingAndGlyphs" textLength="52" x="893.5" y="555.7104">Integer n</text><line style="stroke: #A80036; stroke-width: 1.5;" x1="888.5" x2="1227.5" y1="562.3047" y2="562.3047"/><text fill="#000000" font-family="sans-serif" font-size="11" lengthAdjust="spacingAndGlyphs" textLength="329" x="893.5" y="576.5151">public Integer getNota(Examen examen, Integer puntaje)</text><!--MD5=[79ad0571cfcede94047fc69d4da0359b]
class NotaTabla--><rect codeLine="43" fill="#FEFECE" filter="url(#f1kp5wcn8en4vy)" height="73.6094" id="NotaTabla" style="stroke: #A80036; stroke-width: 1.5;" width="341" x="1263.5" y="509.5"/><ellipse cx="1400.25" cy="525.5" fill="#ADD1B2" rx="11" ry="11" style="stroke: #A80036; stroke-width: 1.0;"/><path d="M1402.5938,521.1719 C1401.6563,520.7344 1401.0625,520.5938 1400.1875,520.5938 C1397.5625,520.5938 1395.5625,522.6719 1395.5625,525.3906 L1395.5625,526.5156 C1395.5625,529.0938 1397.6719,530.9844 1400.5625,530.9844 C1401.7813,530.9844 1402.9375,530.6875 1403.6875,530.1406 C1404.2656,529.7344 1404.5938,529.2813 1404.5938,528.8906 C1404.5938,528.4375 1404.2031,528.0469 1403.7344,528.0469 C1403.5156,528.0469 1403.3125,528.125 1403.125,528.3125 C1402.6719,528.7969 1402.6719,528.7969 1402.4844,528.8906 C1402.0625,529.1563 1401.375,529.2813 1400.6094,529.2813 C1398.5625,529.2813 1397.2656,528.1875 1397.2656,526.4844 L1397.2656,525.3906 C1397.2656,523.6094 1398.5156,522.2969 1400.25,522.2969 C1400.8281,522.2969 1401.4375,522.4531 1401.9063,522.7031 C1402.3906,522.9844 1402.5625,523.2031 1402.6563,523.6094 C1402.7188,524.0156 1402.75,524.1406 1402.8906,524.2656 C1403.0313,524.4063 1403.2656,524.5156 1403.4844,524.5156 C1403.75,524.5156 1404.0156,524.375 1404.1875,524.1563 C1404.2969,524 1404.3281,523.8125 1404.3281,523.3906 L1404.3281,521.9688 C1404.3281,521.5313 1404.3125,521.4063 1404.2188,521.25 C1404.0625,520.9844 1403.7813,520.8438 1403.4844,520.8438 C1403.1875,520.8438 1402.9844,520.9375 1402.7656,521.25 L1402.5938,521.1719 Z "/><text fill="#000000" font-family="sans-serif" font-size="12" lengthAdjust="spacingAndGlyphs" textLength="59" x="1420.75" y="529.6543">NotaTabla</text><line style="stroke: #A80036; stroke-width: 1.5;" x1="1264.5" x2="1603.5" y1="541.5" y2="541.5"/><text fill="#000000" font-family="sans-serif" font-size="11" lengthAdjust="spacingAndGlyphs" textLength="226" x="1269.5" y="555.7104">Map&lt;Integer, Integer&gt; tablaConversion</text><line style="stroke: #A80036; stroke-width: 1.5;" x1="1264.5" x2="1603.5" y1="562.3047" y2="562.3047"/><text fill="#000000" font-family="sans-serif" font-size="11" lengthAdjust="spacingAndGlyphs" textLength="329" x="1269.5" y="576.5151">public Integer getNota(Examen examen, Integer puntaje)</text><!--MD5=[d6e1f764822246590ccf1a43095c716b]
class Pregunta--><rect codeLine="53" fill="#FEFECE" filter="url(#f1kp5wcn8en4vy)" height="99.2188" id="Pregunta" style="stroke: #A80036; stroke-width: 1.5;" width="227" x="1639.5" y="497"/><ellipse cx="1722.75" cy="513" fill="#ADD1B2" rx="11" ry="11" style="stroke: #A80036; stroke-width: 1.0;"/><path d="M1725.0938,508.6719 C1724.1563,508.2344 1723.5625,508.0938 1722.6875,508.0938 C1720.0625,508.0938 1718.0625,510.1719 1718.0625,512.8906 L1718.0625,514.0156 C1718.0625,516.5938 1720.1719,518.4844 1723.0625,518.4844 C1724.2813,518.4844 1725.4375,518.1875 1726.1875,517.6406 C1726.7656,517.2344 1727.0938,516.7813 1727.0938,516.3906 C1727.0938,515.9375 1726.7031,515.5469 1726.2344,515.5469 C1726.0156,515.5469 1725.8125,515.625 1725.625,515.8125 C1725.1719,516.2969 1725.1719,516.2969 1724.9844,516.3906 C1724.5625,516.6563 1723.875,516.7813 1723.1094,516.7813 C1721.0625,516.7813 1719.7656,515.6875 1719.7656,513.9844 L1719.7656,512.8906 C1719.7656,511.1094 1721.0156,509.7969 1722.75,509.7969 C1723.3281,509.7969 1723.9375,509.9531 1724.4063,510.2031 C1724.8906,510.4844 1725.0625,510.7031 1725.1563,511.1094 C1725.2188,511.5156 1725.25,511.6406 1725.3906,511.7656 C1725.5313,511.9063 1725.7656,512.0156 1725.9844,512.0156 C1726.25,512.0156 1726.5156,511.875 1726.6875,511.6563 C1726.7969,511.5 1726.8281,511.3125 1726.8281,510.8906 L1726.8281,509.4688 C1726.8281,509.0313 1726.8125,508.9063 1726.7188,508.75 C1726.5625,508.4844 1726.2813,508.3438 1725.9844,508.3438 C1725.6875,508.3438 1725.4844,508.4375 1725.2656,508.75 L1725.0938,508.6719 Z "/><text fill="#000000" font-family="sans-serif" font-size="12" lengthAdjust="spacingAndGlyphs" textLength="52" x="1743.25" y="517.1543">Pregunta</text><line style="stroke: #A80036; stroke-width: 1.5;" x1="1640.5" x2="1865.5" y1="529" y2="529"/><text fill="#000000" font-family="sans-serif" font-size="11" lengthAdjust="spacingAndGlyphs" textLength="73" x="1645.5" y="543.2104">Integer peso</text><text fill="#000000" font-family="sans-serif" font-size="11" lengthAdjust="spacingAndGlyphs" textLength="88" x="1645.5" y="556.0151">String pregunta</text><text fill="#000000" font-family="sans-serif" font-size="11" lengthAdjust="spacingAndGlyphs" textLength="94" x="1645.5" y="568.8198">String respuesta</text><line style="stroke: #A80036; stroke-width: 1.5;" x1="1640.5" x2="1865.5" y1="575.4141" y2="575.4141"/><text fill="#000000" font-family="sans-serif" font-size="11" lengthAdjust="spacingAndGlyphs" textLength="215" x="1645.5" y="589.6245">Boolean esCorrecta(String respuesta)</text><!--MD5=[af6c6c970e5b47f5d0791d9b586c74c6]
class PreguntaMultipleChoice--><rect codeLine="61" fill="#FEFECE" filter="url(#f1kp5wcn8en4vy)" height="60.8047" id="PreguntaMultipleChoice" style="stroke: #A80036; stroke-width: 1.5;" width="171" x="1667.5" y="656"/><ellipse cx="1682.5" cy="672" fill="#ADD1B2" rx="11" ry="11" style="stroke: #A80036; stroke-width: 1.0;"/><path d="M1684.8438,667.6719 C1683.9063,667.2344 1683.3125,667.0938 1682.4375,667.0938 C1679.8125,667.0938 1677.8125,669.1719 1677.8125,671.8906 L1677.8125,673.0156 C1677.8125,675.5938 1679.9219,677.4844 1682.8125,677.4844 C1684.0313,677.4844 1685.1875,677.1875 1685.9375,676.6406 C1686.5156,676.2344 1686.8438,675.7813 1686.8438,675.3906 C1686.8438,674.9375 1686.4531,674.5469 1685.9844,674.5469 C1685.7656,674.5469 1685.5625,674.625 1685.375,674.8125 C1684.9219,675.2969 1684.9219,675.2969 1684.7344,675.3906 C1684.3125,675.6563 1683.625,675.7813 1682.8594,675.7813 C1680.8125,675.7813 1679.5156,674.6875 1679.5156,672.9844 L1679.5156,671.8906 C1679.5156,670.1094 1680.7656,668.7969 1682.5,668.7969 C1683.0781,668.7969 1683.6875,668.9531 1684.1563,669.2031 C1684.6406,669.4844 1684.8125,669.7031 1684.9063,670.1094 C1684.9688,670.5156 1685,670.6406 1685.1406,670.7656 C1685.2813,670.9063 1685.5156,671.0156 1685.7344,671.0156 C1686,671.0156 1686.2656,670.875 1686.4375,670.6563 C1686.5469,670.5 1686.5781,670.3125 1686.5781,669.8906 L1686.5781,668.4688 C1686.5781,668.0313 1686.5625,667.9063 1686.4688,667.75 C1686.3125,667.4844 1686.0313,667.3438 1685.7344,667.3438 C1685.4375,667.3438 1685.2344,667.4375 1685.0156,667.75 L1684.8438,667.6719 Z "/><text fill="#000000" font-family="sans-serif" font-size="12" lengthAdjust="spacingAndGlyphs" textLength="139" x="1696.5" y="676.1543">PreguntaMultipleChoice</text><line style="stroke: #A80036; stroke-width: 1.5;" x1="1668.5" x2="1837.5" y1="688" y2="688"/><text fill="#000000" font-family="sans-serif" font-size="11" lengthAdjust="spacingAndGlyphs" textLength="125" x="1673.5" y="702.2104">List&lt;String&gt; opciones</text><line style="stroke: #A80036; stroke-width: 1.5;" x1="1668.5" x2="1837.5" y1="708.8047" y2="708.8047"/><!--MD5=[a765bc4a47ec09d051d942e780a1d33c]
class PreguntaVF--><rect codeLine="65" fill="#FEFECE" filter="url(#f1kp5wcn8en4vy)" height="48" id="PreguntaVF" style="stroke: #A80036; stroke-width: 1.5;" width="99" x="1703.5" y="777"/><ellipse cx="1718.5" cy="793" fill="#ADD1B2" rx="11" ry="11" style="stroke: #A80036; stroke-width: 1.0;"/><path d="M1720.8438,788.6719 C1719.9063,788.2344 1719.3125,788.0938 1718.4375,788.0938 C1715.8125,788.0938 1713.8125,790.1719 1713.8125,792.8906 L1713.8125,794.0156 C1713.8125,796.5938 1715.9219,798.4844 1718.8125,798.4844 C1720.0313,798.4844 1721.1875,798.1875 1721.9375,797.6406 C1722.5156,797.2344 1722.8438,796.7813 1722.8438,796.3906 C1722.8438,795.9375 1722.4531,795.5469 1721.9844,795.5469 C1721.7656,795.5469 1721.5625,795.625 1721.375,795.8125 C1720.9219,796.2969 1720.9219,796.2969 1720.7344,796.3906 C1720.3125,796.6563 1719.625,796.7813 1718.8594,796.7813 C1716.8125,796.7813 1715.5156,795.6875 1715.5156,793.9844 L1715.5156,792.8906 C1715.5156,791.1094 1716.7656,789.7969 1718.5,789.7969 C1719.0781,789.7969 1719.6875,789.9531 1720.1563,790.2031 C1720.6406,790.4844 1720.8125,790.7031 1720.9063,791.1094 C1720.9688,791.5156 1721,791.6406 1721.1406,791.7656 C1721.2813,791.9063 1721.5156,792.0156 1721.7344,792.0156 C1722,792.0156 1722.2656,791.875 1722.4375,791.6563 C1722.5469,791.5 1722.5781,791.3125 1722.5781,790.8906 L1722.5781,789.4688 C1722.5781,789.0313 1722.5625,788.9063 1722.4688,788.75 C1722.3125,788.4844 1722.0313,788.3438 1721.7344,788.3438 C1721.4375,788.3438 1721.2344,788.4375 1721.0156,788.75 L1720.8438,788.6719 Z "/><text fill="#000000" font-family="sans-serif" font-size="12" lengthAdjust="spacingAndGlyphs" textLength="67" x="1732.5" y="797.1543">PreguntaVF</text><line style="stroke: #A80036; stroke-width: 1.5;" x1="1704.5" x2="1801.5" y1="809" y2="809"/><line style="stroke: #A80036; stroke-width: 1.5;" x1="1704.5" x2="1801.5" y1="817" y2="817"/><!--MD5=[b7daf4323c4f1e94c7d3907eb5af2203]
class RespuestaPregunta--><rect codeLine="68" fill="#FEFECE" filter="url(#f1kp5wcn8en4vy)" height="86.4141" id="RespuestaPregunta" style="stroke: #A80036; stroke-width: 1.5;" width="178" x="1664" y="351"/><ellipse cx="1692.95" cy="367" fill="#ADD1B2" rx="11" ry="11" style="stroke: #A80036; stroke-width: 1.0;"/><path d="M1695.2938,362.6719 C1694.3563,362.2344 1693.7625,362.0938 1692.8875,362.0938 C1690.2625,362.0938 1688.2625,364.1719 1688.2625,366.8906 L1688.2625,368.0156 C1688.2625,370.5938 1690.3719,372.4844 1693.2625,372.4844 C1694.4813,372.4844 1695.6375,372.1875 1696.3875,371.6406 C1696.9656,371.2344 1697.2938,370.7813 1697.2938,370.3906 C1697.2938,369.9375 1696.9031,369.5469 1696.4344,369.5469 C1696.2156,369.5469 1696.0125,369.625 1695.825,369.8125 C1695.3719,370.2969 1695.3719,370.2969 1695.1844,370.3906 C1694.7625,370.6563 1694.075,370.7813 1693.3094,370.7813 C1691.2625,370.7813 1689.9656,369.6875 1689.9656,367.9844 L1689.9656,366.8906 C1689.9656,365.1094 1691.2156,363.7969 1692.95,363.7969 C1693.5281,363.7969 1694.1375,363.9531 1694.6063,364.2031 C1695.0906,364.4844 1695.2625,364.7031 1695.3563,365.1094 C1695.4188,365.5156 1695.45,365.6406 1695.5906,365.7656 C1695.7313,365.9063 1695.9656,366.0156 1696.1844,366.0156 C1696.45,366.0156 1696.7156,365.875 1696.8875,365.6563 C1696.9969,365.5 1697.0281,365.3125 1697.0281,364.8906 L1697.0281,363.4688 C1697.0281,363.0313 1697.0125,362.9063 1696.9188,362.75 C1696.7625,362.4844 1696.4813,362.3438 1696.1844,362.3438 C1695.8875,362.3438 1695.6844,362.4375 1695.4656,362.75 L1695.2938,362.6719 Z "/><text fill="#000000" font-family="sans-serif" font-size="12" lengthAdjust="spacingAndGlyphs" textLength="115" x="1710.05" y="371.1543">RespuestaPregunta</text><line style="stroke: #A80036; stroke-width: 1.5;" x1="1665" x2="1841" y1="383" y2="383"/><text fill="#000000" font-family="sans-serif" font-size="11" lengthAdjust="spacingAndGlyphs" textLength="105" x="1670" y="397.2104">Pregunta pregunta</text><text fill="#000000" font-family="sans-serif" font-size="11" lengthAdjust="spacingAndGlyphs" textLength="94" x="1670" y="410.0151">String respuesta</text><line style="stroke: #A80036; stroke-width: 1.5;" x1="1665" x2="1841" y1="416.6094" y2="416.6094"/><text fill="#000000" font-family="sans-serif" font-size="11" lengthAdjust="spacingAndGlyphs" textLength="166" x="1670" y="430.8198">Integer getPuntajeObtenido()</text><!--MD5=[ab25356fa80eb14da8b3104403612ef8]
reverse link CriterioCompuesto to NotaPromedio--><path d="M267.76,596.69 C243.476,616.52 216.271,638.734 195.145,655.985 " fill="none" id="CriterioCompuesto&lt;-NotaPromedio" style="stroke: #A80036; stroke-width: 1.0;"/><polygon fill="none" points="263.678,590.986,283.597,583.758,272.533,601.83,263.678,590.986" style="stroke: #A80036; stroke-width: 1.0;"/><!--MD5=[1f0a21c84dc4a2090fee567a9a306420]
reverse link CriterioCompuesto to NotaMasAlta--><path d="M388.246,596.406 C412.763,616.307 440.289,638.652 461.642,655.985 " fill="none" id="CriterioCompuesto&lt;-NotaMasAlta" style="stroke: #A80036; stroke-width: 1.0;"/><polygon fill="none" points="383.782,601.798,372.665,583.758,392.605,590.928,383.782,601.798" style="stroke: #A80036; stroke-width: 1.0;"/><!--MD5=[d8f3e7af67f9a3fe5dd4646163270421]
reverse link CriterioNota to NotaReglaTres--><path d="M827.992,437.886 C798.351,462.808 761.75,493.581 735.291,515.828 " fill="none" id="CriterioNota&lt;-NotaReglaTres" style="stroke: #A80036; stroke-width: 1.0; stroke-dasharray: 7.0,7.0;"/><polygon fill="none" points="823.822,432.247,843.635,424.734,832.832,442.963,823.822,432.247" style="stroke: #A80036; stroke-width: 1.0;"/><!--MD5=[602cc8e579b8ded999d49c6aa6669768]
reverse link CriterioNota to NotaResta--><path d="M929.863,437.765 C956.795,460.409 989.503,487.909 1015.13,509.457 " fill="none" id="CriterioNota&lt;-NotaResta" style="stroke: #A80036; stroke-width: 1.0; stroke-dasharray: 7.0,7.0;"/><polygon fill="none" points="925.168,442.963,914.365,424.734,934.178,432.247,925.168,442.963" style="stroke: #A80036; stroke-width: 1.0;"/><!--MD5=[a35c22faff0f6e8b7c6302bfc8fc23e9]
reverse link CriterioNota to NotaTabla--><path d="M1007.45,429.833 C1095.5,453.709 1212.02,485.306 1301.02,509.441 " fill="none" id="CriterioNota&lt;-NotaTabla" style="stroke: #A80036; stroke-width: 1.0; stroke-dasharray: 7.0,7.0;"/><polygon fill="none" points="1005.459,436.545,987.988,424.554,1009.12,423.033,1005.459,436.545" style="stroke: #A80036; stroke-width: 1.0;"/><!--MD5=[fa1f466ddeea2b78643a52eda88aaaa2]
reverse link CriterioNota to CriterioCompuesto--><path d="M740.823,429.753 C651.09,453.616 535.345,485.219 449.194,509.372 " fill="none" id="CriterioNota&lt;-CriterioCompuesto" style="stroke: #A80036; stroke-width: 1.0; stroke-dasharray: 7.0,7.0;"/><polygon fill="none" points="739.297,422.916,760.423,424.554,742.886,436.448,739.297,422.916" style="stroke: #A80036; stroke-width: 1.0;"/><!--MD5=[b4bc1727a3538d99ea8815ed941ebe9d]
link CriterioCompuesto to CriterioNota--><path codeLine="75" d="M471.737,509.441 C567.568,483.962 691.102,450.168 776.954,425.919 " fill="none" id="CriterioCompuesto-&gt;CriterioNota" style="stroke: #A80036; stroke-width: 1.0;"/><polygon fill="#A80036" points="781.782,424.554,772.0333,423.1528,776.9705,425.914,774.2093,430.8512,781.782,424.554" style="stroke: #A80036; stroke-width: 1.0;"/><text fill="#000000" font-family="sans-serif" font-size="13" lengthAdjust="spacingAndGlyphs" textLength="7" x="754.0089" y="444.5034">*</text><!--MD5=[1d86cdf937d899eb5668cc332b30a2b1]
reverse link Pregunta to PreguntaMultipleChoice--><path d="M1753,616.244 C1753,630.143 1753,644.055 1753,655.726 " fill="none" id="Pregunta&lt;-PreguntaMultipleChoice" style="stroke: #A80036; stroke-width: 1.0;"/><polygon fill="none" points="1746,616.154,1753,596.154,1760,616.154,1746,616.154" style="stroke: #A80036; stroke-width: 1.0;"/><!--MD5=[6284e89b4e2227d7b9d33ce4c12ecbf6]
reverse link PreguntaMultipleChoice to PreguntaVF--><path d="M1753,737.1067 C1753,750.8764 1753,765.1847 1753,776.6686 " fill="none" id="PreguntaMultipleChoice&lt;-PreguntaVF" style="stroke: #A80036; stroke-width: 1.0;"/><polygon fill="none" points="1746,737.0581,1753,717.058,1760,737.058,1746,737.0581" style="stroke: #A80036; stroke-width: 1.0;"/><!--MD5=[b9b0fd1663f3572d0feac5bf30c1136e]
link Examen to Pregunta--><path codeLine="73" d="M1611.85,291.252 C1614.22,330.939 1621.95,390.944 1646,437 C1656.76,457.603 1672.74,476.843 1689.08,493.23 " fill="none" id="Examen-&gt;Pregunta" style="stroke: #A80036; stroke-width: 1.0;"/><polygon fill="#A80036" points="1692.79,496.898,1689.1988,487.7272,1689.2331,493.384,1683.5764,493.4182,1692.79,496.898" style="stroke: #A80036; stroke-width: 1.0;"/><text fill="#000000" font-family="sans-serif" font-size="13" lengthAdjust="spacingAndGlyphs" textLength="7" x="1676.8308" y="485.9289">*</text><!--MD5=[60d14642b85d7db648300bca30aab398]
link Examen to CriterioNota--><path codeLine="74" d="M1530.82,285.214 C1524.85,287.339 1518.87,289.299 1513,291 C1353.9,337.13 1165.9,364.073 1036.15,378.562 " fill="none" id="Examen-&gt;CriterioNota" style="stroke: #A80036; stroke-width: 1.0;"/><polygon fill="#A80036" points="1031.17,379.115,1040.5511,382.1141,1036.1404,378.5721,1039.6825,374.1614,1031.17,379.115" style="stroke: #A80036; stroke-width: 1.0;"/><!--MD5=[c2afdb255f71e259c78da7725a2462dc]
link ExamenResuelto to Alumno--><path codeLine="76" d="M1546.04,145.166 C1523.6,168.721 1499.44,194.073 1480.84,213.589 " fill="none" id="ExamenResuelto-&gt;Alumno" style="stroke: #A80036; stroke-width: 1.0;"/><polygon fill="#A80036" points="1477.2,217.413,1486.3069,213.6628,1480.6516,213.7955,1480.5189,208.1402,1477.2,217.413" style="stroke: #A80036; stroke-width: 1.0;"/><!--MD5=[6552fe5158847c95bdd6103b5d76e82d]
link ExamenResuelto to Examen--><path codeLine="77" d="M1611,145.166 C1611,163.416 1611,182.744 1611,199.601 " fill="none" id="ExamenResuelto-&gt;Examen" style="stroke: #A80036; stroke-width: 1.0;"/><polygon fill="#A80036" points="1611,204.749,1615,195.749,1611,199.749,1607,195.749,1611,204.749" style="stroke: #A80036; stroke-width: 1.0;"/><!--MD5=[8213c5276aaa89b67671d95b01787c0b]
link ExamenResuelto to RespuestaPregunta--><path codeLine="78" d="M1670.72,145.033 C1684.6,163.519 1698.17,184.205 1708,205 C1729.35,250.151 1741.09,306.339 1747.17,345.474 " fill="none" id="ExamenResuelto-&gt;RespuestaPregunta" style="stroke: #A80036; stroke-width: 1.0;"/><polygon fill="#A80036" points="1747.95,350.64,1750.5519,341.141,1747.1985,345.6968,1742.6428,342.3434,1747.95,350.64" style="stroke: #A80036; stroke-width: 1.0;"/><text fill="#000000" font-family="sans-serif" font-size="13" lengthAdjust="spacingAndGlyphs" textLength="7" x="1739.6408" y="339.8974">*</text><!--MD5=[4ecb775be750d4ebe61ac65d8258be4e]
link RespuestaPregunta to Pregunta--><path codeLine="79" d="M1753,437.323 C1753,454.25 1753,473.946 1753,491.858 " fill="none" id="RespuestaPregunta-&gt;Pregunta" style="stroke: #A80036; stroke-width: 1.0;"/><polygon fill="#A80036" points="1753,496.859,1757,487.859,1753,491.859,1749,487.859,1753,496.859" style="stroke: #A80036; stroke-width: 1.0;"/><!--MD5=[e26169b511972a6bb7294db98e37451e]
@startuml
class Alumno {
    String nombre
}

class Examen {
    List<Pregunta> preguntas
    Integer notaMinima
    CriterioNota criterioNota
}

class ExamenResuelto {
    Alumno alumno
    Examen examen
    List<RespuestaPregunta> respuestas

    void addRespuesta(Pregunta pregunta, String respuesta)
    Integer getPuntaje()
    Integer getNota()
    Boolean aprobado()
}

interface CriterioNota {
    Integer getNota(Examen examen, Integer puntaje)
}

class NotaPromedio extends CriterioCompuesto {
    Integer getNota(Examen examen, Integer puntaje)
}

class NotaMasAlta extends CriterioCompuesto {
    Integer getNota(Examen examen, Integer puntaje)
}

class NotaReglaTres implements CriterioNota {
    Integer getNota(Examen examen, Integer puntaje)
}

class NotaResta implements CriterioNota {
    Integer n
    public Integer getNota(Examen examen, Integer puntaje)
}

class NotaTabla implements CriterioNota {
    Map<Integer, Integer> tablaConversion
    public Integer getNota(Examen examen, Integer puntaje)
}

abstract class CriterioCompuesto implements CriterioNota {
    List<CriterioNota> criterios
    IntStream notasDeCriterios(Examen examen, Integer puntaje)
}

class Pregunta {
    Integer peso
    String pregunta
    String respuesta

    Boolean esCorrecta(String respuesta)
}

class PreguntaMultipleChoice extends Pregunta {
    List<String> opciones
}

class PreguntaVF extends PreguntaMultipleChoice {
}

class RespuestaPregunta {
    Pregunta pregunta
    String respuesta
    Integer getPuntajeObtenido()
}
Examen - - -> "*"Pregunta
Examen - -> CriterioNota
CriterioCompuesto - -> "*"CriterioNota
ExamenResuelto - -> Alumno
ExamenResuelto - -> Examen
ExamenResuelto - -> "*"RespuestaPregunta
RespuestaPregunta - -> Pregunta
@enduml

PlantUML version 1.2020.16beta3(Unknown compile time)
(GPL source distribution)
Java Runtime: Java(TM) SE Runtime Environment
JVM: Java HotSpot(TM) 64-Bit Server VM
Default Encoding: UTF-8
Language: en
Country: US
--></g></svg>