<?xml version="1.0" encoding="UTF-8" standalone="no"?><svg xmlns="http://www.w3.org/2000/svg" xmlns:xlink="http://www.w3.org/1999/xlink" contentScriptType="application/ecmascript" contentStyleType="text/css" height="723px" preserveAspectRatio="none" style="width:1829px;height:723px;" version="1.1" viewBox="0 0 1829 723" width="1829px" zoomAndPan="magnify"><defs><filter height="300%" id="fs1obykwgwog5" width="300%" x="-1" y="-1"><feGaussianBlur result="blurOut" stdDeviation="2.0"/><feColorMatrix in="blurOut" result="blurOut2" type="matrix" values="0 0 0 0 0 0 0 0 0 0 0 0 0 0 0 0 0 0 .4 0"/><feOffset dx="4.0" dy="4.0" in="blurOut2" result="blurOut3"/><feBlend in="SourceGraphic" in2="blurOut3" mode="normal"/></filter></defs><g><!--MD5=[b887cf1b6732c2da6b2473101c66933d]
class Alumno--><rect codeLine="1" fill="#FEFECE" filter="url(#fs1obykwgwog5)" height="60.8047" id="Alumno" style="stroke: #A80036; stroke-width: 1.5;" width="93" x="1129.5" y="217.5"/><ellipse cx="1152.15" cy="233.5" fill="#ADD1B2" rx="11" ry="11" style="stroke: #A80036; stroke-width: 1.0;"/><path d="M1154.4938,229.1719 C1153.5563,228.7344 1152.9625,228.5938 1152.0875,228.5938 C1149.4625,228.5938 1147.4625,230.6719 1147.4625,233.3906 L1147.4625,234.5156 C1147.4625,237.0938 1149.5719,238.9844 1152.4625,238.9844 C1153.6813,238.9844 1154.8375,238.6875 1155.5875,238.1406 C1156.1656,237.7344 1156.4938,237.2813 1156.4938,236.8906 C1156.4938,236.4375 1156.1031,236.0469 1155.6344,236.0469 C1155.4156,236.0469 1155.2125,236.125 1155.025,236.3125 C1154.5719,236.7969 1154.5719,236.7969 1154.3844,236.8906 C1153.9625,237.1563 1153.275,237.2813 1152.5094,237.2813 C1150.4625,237.2813 1149.1656,236.1875 1149.1656,234.4844 L1149.1656,233.3906 C1149.1656,231.6094 1150.4156,230.2969 1152.15,230.2969 C1152.7281,230.2969 1153.3375,230.4531 1153.8063,230.7031 C1154.2906,230.9844 1154.4625,231.2031 1154.5563,231.6094 C1154.6188,232.0156 1154.65,232.1406 1154.7906,232.2656 C1154.9313,232.4063 1155.1656,232.5156 1155.3844,232.5156 C1155.65,232.5156 1155.9156,232.375 1156.0875,232.1563 C1156.1969,232 1156.2281,231.8125 1156.2281,231.3906 L1156.2281,229.9688 C1156.2281,229.5313 1156.2125,229.4063 1156.1188,229.25 C1155.9625,228.9844 1155.6813,228.8438 1155.3844,228.8438 C1155.0875,228.8438 1154.8844,228.9375 1154.6656,229.25 L1154.4938,229.1719 Z "/><text fill="#000000" font-family="sans-serif" font-size="12" lengthAdjust="spacingAndGlyphs" textLength="44" x="1167.85" y="237.6543">Alumno</text><line style="stroke: #A80036; stroke-width: 1.5;" x1="1130.5" x2="1221.5" y1="249.5" y2="249.5"/><text fill="#000000" font-family="sans-serif" font-size="11" lengthAdjust="spacingAndGlyphs" textLength="81" x="1135.5" y="263.7104">String nombre</text><line style="stroke: #A80036; stroke-width: 1.5;" x1="1130.5" x2="1221.5" y1="270.3047" y2="270.3047"/><!--MD5=[69268330f0a536610f2ee0ac17577904]
class Examen--><rect codeLine="5" fill="#FEFECE" filter="url(#fs1obykwgwog5)" height="86.4141" id="Examen" style="stroke: #A80036; stroke-width: 1.5;" width="160" x="1258" y="205"/><ellipse cx="1310.25" cy="221" fill="#ADD1B2" rx="11" ry="11" style="stroke: #A80036; stroke-width: 1.0;"/><path d="M1312.5938,216.6719 C1311.6563,216.2344 1311.0625,216.0938 1310.1875,216.0938 C1307.5625,216.0938 1305.5625,218.1719 1305.5625,220.8906 L1305.5625,222.0156 C1305.5625,224.5938 1307.6719,226.4844 1310.5625,226.4844 C1311.7813,226.4844 1312.9375,226.1875 1313.6875,225.6406 C1314.2656,225.2344 1314.5938,224.7813 1314.5938,224.3906 C1314.5938,223.9375 1314.2031,223.5469 1313.7344,223.5469 C1313.5156,223.5469 1313.3125,223.625 1313.125,223.8125 C1312.6719,224.2969 1312.6719,224.2969 1312.4844,224.3906 C1312.0625,224.6563 1311.375,224.7813 1310.6094,224.7813 C1308.5625,224.7813 1307.2656,223.6875 1307.2656,221.9844 L1307.2656,220.8906 C1307.2656,219.1094 1308.5156,217.7969 1310.25,217.7969 C1310.8281,217.7969 1311.4375,217.9531 1311.9063,218.2031 C1312.3906,218.4844 1312.5625,218.7031 1312.6563,219.1094 C1312.7188,219.5156 1312.75,219.6406 1312.8906,219.7656 C1313.0313,219.9063 1313.2656,220.0156 1313.4844,220.0156 C1313.75,220.0156 1314.0156,219.875 1314.1875,219.6563 C1314.2969,219.5 1314.3281,219.3125 1314.3281,218.8906 L1314.3281,217.4688 C1314.3281,217.0313 1314.3125,216.9063 1314.2188,216.75 C1314.0625,216.4844 1313.7813,216.3438 1313.4844,216.3438 C1313.1875,216.3438 1312.9844,216.4375 1312.7656,216.75 L1312.5938,216.6719 Z "/><text fill="#000000" font-family="sans-serif" font-size="12" lengthAdjust="spacingAndGlyphs" textLength="47" x="1330.75" y="225.1543">Examen</text><line style="stroke: #A80036; stroke-width: 1.5;" x1="1259" x2="1417" y1="237" y2="237"/><text fill="#000000" font-family="sans-serif" font-size="11" lengthAdjust="spacingAndGlyphs" textLength="148" x="1264" y="251.2104">List&lt;Pregunta&gt; preguntas</text><text fill="#000000" font-family="sans-serif" font-size="11" lengthAdjust="spacingAndGlyphs" textLength="110" x="1264" y="264.0151">Integer notaMinima</text><text fill="#000000" font-family="sans-serif" font-size="11" lengthAdjust="spacingAndGlyphs" textLength="136" x="1264" y="276.8198">CriterioNota criterioNota</text><line style="stroke: #A80036; stroke-width: 1.5;" x1="1259" x2="1417" y1="283.4141" y2="283.4141"/><!--MD5=[b7c285b4ea88783bf6a29ac976a08111]
class ExamenResuelto--><rect codeLine="11" fill="#FEFECE" filter="url(#fs1obykwgwog5)" height="137.6328" id="ExamenResuelto" style="stroke: #A80036; stroke-width: 1.5;" width="335" x="1170.5" y="7"/><ellipse cx="1284.25" cy="23" fill="#ADD1B2" rx="11" ry="11" style="stroke: #A80036; stroke-width: 1.0;"/><path d="M1286.5938,18.6719 C1285.6563,18.2344 1285.0625,18.0938 1284.1875,18.0938 C1281.5625,18.0938 1279.5625,20.1719 1279.5625,22.8906 L1279.5625,24.0156 C1279.5625,26.5938 1281.6719,28.4844 1284.5625,28.4844 C1285.7813,28.4844 1286.9375,28.1875 1287.6875,27.6406 C1288.2656,27.2344 1288.5938,26.7813 1288.5938,26.3906 C1288.5938,25.9375 1288.2031,25.5469 1287.7344,25.5469 C1287.5156,25.5469 1287.3125,25.625 1287.125,25.8125 C1286.6719,26.2969 1286.6719,26.2969 1286.4844,26.3906 C1286.0625,26.6563 1285.375,26.7813 1284.6094,26.7813 C1282.5625,26.7813 1281.2656,25.6875 1281.2656,23.9844 L1281.2656,22.8906 C1281.2656,21.1094 1282.5156,19.7969 1284.25,19.7969 C1284.8281,19.7969 1285.4375,19.9531 1285.9063,20.2031 C1286.3906,20.4844 1286.5625,20.7031 1286.6563,21.1094 C1286.7188,21.5156 1286.75,21.6406 1286.8906,21.7656 C1287.0313,21.9063 1287.2656,22.0156 1287.4844,22.0156 C1287.75,22.0156 1288.0156,21.875 1288.1875,21.6563 C1288.2969,21.5 1288.3281,21.3125 1288.3281,20.8906 L1288.3281,19.4688 C1288.3281,19.0313 1288.3125,18.9063 1288.2188,18.75 C1288.0625,18.4844 1287.7813,18.3438 1287.4844,18.3438 C1287.1875,18.3438 1286.9844,18.4375 1286.7656,18.75 L1286.5938,18.6719 Z "/><text fill="#000000" font-family="sans-serif" font-size="12" lengthAdjust="spacingAndGlyphs" textLength="99" x="1304.75" y="27.1543">ExamenResuelto</text><line style="stroke: #A80036; stroke-width: 1.5;" x1="1171.5" x2="1504.5" y1="39" y2="39"/><text fill="#000000" font-family="sans-serif" font-size="11" lengthAdjust="spacingAndGlyphs" textLength="89" x="1176.5" y="53.2104">Alumno alumno</text><text fill="#000000" font-family="sans-serif" font-size="11" lengthAdjust="spacingAndGlyphs" textLength="99" x="1176.5" y="66.0151">Examen examen</text><text fill="#000000" font-family="sans-serif" font-size="11" lengthAdjust="spacingAndGlyphs" textLength="214" x="1176.5" y="78.8198">List&lt;RespuestaPregunta&gt; respuestas</text><line style="stroke: #A80036; stroke-width: 1.5;" x1="1171.5" x2="1504.5" y1="85.4141" y2="85.4141"/><text fill="#000000" font-family="sans-serif" font-size="11" lengthAdjust="spacingAndGlyphs" textLength="323" x="1176.5" y="99.6245">void addRespuesta(Pregunta pregunta, String respuesta)</text><text fill="#000000" font-family="sans-serif" font-size="11" lengthAdjust="spacingAndGlyphs" textLength="114" x="1176.5" y="112.4292">Integer getPuntaje()</text><text fill="#000000" font-family="sans-serif" font-size="11" lengthAdjust="spacingAndGlyphs" textLength="98" x="1176.5" y="125.2339">Integer getNota()</text><text fill="#000000" font-family="sans-serif" font-size="11" lengthAdjust="spacingAndGlyphs" textLength="112" x="1176.5" y="138.0386">Boolean aprobado()</text><!--MD5=[4e4cd93010cbb368adc545e856d87476]
class CriterioNota--><rect codeLine="22" fill="#FEFECE" filter="url(#fs1obykwgwog5)" height="60.8047" id="CriterioNota" style="stroke: #A80036; stroke-width: 1.5;" width="304" x="906" y="370"/><ellipse cx="1018.25" cy="386" fill="#B4A7E5" rx="11" ry="11" style="stroke: #A80036; stroke-width: 1.0;"/><path d="M1019.2031,382.7813 L1020.9219,382.7813 C1021.3125,382.7813 1021.5,382.75 1021.625,382.6719 C1021.8906,382.5156 1022.0313,382.2344 1022.0313,381.9375 C1022.0313,381.6719 1021.9219,381.4063 1021.6875,381.2344 C1021.5156,381.125 1021.375,381.0938 1020.9219,381.0938 L1015.7813,381.0938 C1015.3438,381.0938 1015.2188,381.1094 1015.0625,381.2031 C1014.8125,381.3594 1014.6563,381.6563 1014.6563,381.9375 C1014.6563,382.2188 1014.7969,382.4688 1015.0156,382.6406 C1015.1719,382.75 1015.3594,382.7813 1015.7813,382.7813 L1017.5,382.7813 L1017.5,389.2969 L1015.7813,389.2969 C1015.3438,389.2969 1015.2188,389.3125 1015.0625,389.4219 C1014.8125,389.5781 1014.6563,389.8594 1014.6563,390.1563 C1014.6563,390.4063 1014.7969,390.6719 1015.0156,390.8281 C1015.1719,390.9531 1015.375,391 1015.7813,391 L1020.9219,391 C1021.6719,391 1022.0313,390.7188 1022.0313,390.1563 C1022.0313,389.875 1021.9219,389.625 1021.6875,389.4531 C1021.5156,389.3281 1021.375,389.2969 1020.9219,389.2969 L1019.2031,389.2969 L1019.2031,382.7813 Z "/><text fill="#000000" font-family="sans-serif" font-size="12" font-style="italic" lengthAdjust="spacingAndGlyphs" textLength="71" x="1038.75" y="390.1543">CriterioNota</text><line style="stroke: #A80036; stroke-width: 1.5;" x1="907" x2="1209" y1="402" y2="402"/><line style="stroke: #A80036; stroke-width: 1.5;" x1="907" x2="1209" y1="410" y2="410"/><text fill="#000000" font-family="sans-serif" font-size="11" lengthAdjust="spacingAndGlyphs" textLength="292" x="912" y="424.2104">Integer getNota(Examen examen, Integer puntaje)</text><!--MD5=[15825634ec38dea3708d78aa305beabc]
class NotaPromedio--><rect codeLine="26" fill="#FEFECE" filter="url(#fs1obykwgwog5)" height="60.8047" id="NotaPromedio" style="stroke: #A80036; stroke-width: 1.5;" width="304" x="7" y="644"/><ellipse cx="112.75" cy="660" fill="#ADD1B2" rx="11" ry="11" style="stroke: #A80036; stroke-width: 1.0;"/><path d="M115.0938,655.6719 C114.1563,655.2344 113.5625,655.0938 112.6875,655.0938 C110.0625,655.0938 108.0625,657.1719 108.0625,659.8906 L108.0625,661.0156 C108.0625,663.5938 110.1719,665.4844 113.0625,665.4844 C114.2813,665.4844 115.4375,665.1875 116.1875,664.6406 C116.7656,664.2344 117.0938,663.7813 117.0938,663.3906 C117.0938,662.9375 116.7031,662.5469 116.2344,662.5469 C116.0156,662.5469 115.8125,662.625 115.625,662.8125 C115.1719,663.2969 115.1719,663.2969 114.9844,663.3906 C114.5625,663.6563 113.875,663.7813 113.1094,663.7813 C111.0625,663.7813 109.7656,662.6875 109.7656,660.9844 L109.7656,659.8906 C109.7656,658.1094 111.0156,656.7969 112.75,656.7969 C113.3281,656.7969 113.9375,656.9531 114.4063,657.2031 C114.8906,657.4844 115.0625,657.7031 115.1563,658.1094 C115.2188,658.5156 115.25,658.6406 115.3906,658.7656 C115.5313,658.9063 115.7656,659.0156 115.9844,659.0156 C116.25,659.0156 116.5156,658.875 116.6875,658.6563 C116.7969,658.5 116.8281,658.3125 116.8281,657.8906 L116.8281,656.4688 C116.8281,656.0313 116.8125,655.9063 116.7188,655.75 C116.5625,655.4844 116.2813,655.3438 115.9844,655.3438 C115.6875,655.3438 115.4844,655.4375 115.2656,655.75 L115.0938,655.6719 Z "/><text fill="#000000" font-family="sans-serif" font-size="12" lengthAdjust="spacingAndGlyphs" textLength="84" x="133.25" y="664.1543">NotaPromedio</text><line style="stroke: #A80036; stroke-width: 1.5;" x1="8" x2="310" y1="676" y2="676"/><line style="stroke: #A80036; stroke-width: 1.5;" x1="8" x2="310" y1="684" y2="684"/><text fill="#000000" font-family="sans-serif" font-size="11" lengthAdjust="spacingAndGlyphs" textLength="292" x="13" y="698.2104">Integer getNota(Examen examen, Integer puntaje)</text><!--MD5=[61e83df1d9f17625102c549a04aebbce]
class CriterioCompuesto--><rect codeLine="48" fill="#FEFECE" filter="url(#fs1obykwgwog5)" height="73.6094" id="CriterioCompuesto" style="stroke: #A80036; stroke-width: 1.5;" width="369" x="143.5" y="510"/><ellipse cx="268.25" cy="526" fill="#A9DCDF" rx="11" ry="11" style="stroke: #A80036; stroke-width: 1.0;"/><path d="M270.3281,527.8125 L270.7188,528.7969 L270.3281,528.7969 C269.875,528.7969 269.7656,528.8125 269.6094,528.9219 C269.3594,529.0781 269.2031,529.3594 269.2031,529.6563 C269.2031,529.9219 269.3438,530.1719 269.5625,530.3281 C269.7031,530.4531 269.9063,530.5 270.3281,530.5 L272.6875,530.5 C273.0469,530.5 273.2656,530.4688 273.4063,530.375 C273.6563,530.2344 273.8125,529.9375 273.8125,529.6563 C273.8125,529.375 273.6719,529.125 273.4531,528.9688 C273.2813,528.8281 273.125,528.7969 272.6563,528.7969 L269.2656,520.5938 L265.5938,520.5938 C265.1406,520.5938 265.0156,520.6094 264.8594,520.7031 C264.6094,520.875 264.4531,521.1563 264.4531,521.4375 C264.4531,521.7188 264.5938,521.9688 264.8125,522.1406 C264.9844,522.25 265.1563,522.2813 265.5938,522.2813 L266.6719,522.2813 L264.0313,528.7969 C263.6094,528.7969 263.4531,528.8125 263.2969,528.9219 C263.0469,529.0781 262.8906,529.3594 262.8906,529.6563 C262.8906,530.2188 263.2656,530.5 264.0156,530.5 L266.2813,530.5 C266.6406,530.5 266.8594,530.4688 266.9844,530.375 C267.25,530.2344 267.3906,529.9375 267.3906,529.6563 C267.3906,529.375 267.2656,529.125 267.0469,528.9531 C266.875,528.8281 266.7344,528.7969 266.2813,528.7969 L265.8906,528.7969 L266.2813,527.8125 L270.3281,527.8125 Z M269.625,526.1094 L266.9531,526.1094 L268.2969,522.8438 L269.625,526.1094 Z "/><text fill="#000000" font-family="sans-serif" font-size="12" font-style="italic" lengthAdjust="spacingAndGlyphs" textLength="111" x="288.75" y="530.1543">CriterioCompuesto</text><line style="stroke: #A80036; stroke-width: 1.5;" x1="144.5" x2="511.5" y1="542" y2="542"/><text fill="#000000" font-family="sans-serif" font-size="11" lengthAdjust="spacingAndGlyphs" textLength="153" x="149.5" y="556.2104">List&lt;CriterioNota&gt; criterios</text><line style="stroke: #A80036; stroke-width: 1.5;" x1="144.5" x2="511.5" y1="562.8047" y2="562.8047"/><text fill="#000000" font-family="sans-serif" font-size="11" lengthAdjust="spacingAndGlyphs" textLength="357" x="149.5" y="577.0151">IntStream notasDeCriterios(Examen examen, Integer puntaje)</text><!--MD5=[fd585bf0fff08d9b63803e66a4c824e0]
class NotaMasAlta--><rect codeLine="30" fill="#FEFECE" filter="url(#fs1obykwgwog5)" height="60.8047" id="NotaMasAlta" style="stroke: #A80036; stroke-width: 1.5;" width="304" x="346" y="644"/><ellipse cx="457.25" cy="660" fill="#ADD1B2" rx="11" ry="11" style="stroke: #A80036; stroke-width: 1.0;"/><path d="M459.5938,655.6719 C458.6563,655.2344 458.0625,655.0938 457.1875,655.0938 C454.5625,655.0938 452.5625,657.1719 452.5625,659.8906 L452.5625,661.0156 C452.5625,663.5938 454.6719,665.4844 457.5625,665.4844 C458.7813,665.4844 459.9375,665.1875 460.6875,664.6406 C461.2656,664.2344 461.5938,663.7813 461.5938,663.3906 C461.5938,662.9375 461.2031,662.5469 460.7344,662.5469 C460.5156,662.5469 460.3125,662.625 460.125,662.8125 C459.6719,663.2969 459.6719,663.2969 459.4844,663.3906 C459.0625,663.6563 458.375,663.7813 457.6094,663.7813 C455.5625,663.7813 454.2656,662.6875 454.2656,660.9844 L454.2656,659.8906 C454.2656,658.1094 455.5156,656.7969 457.25,656.7969 C457.8281,656.7969 458.4375,656.9531 458.9063,657.2031 C459.3906,657.4844 459.5625,657.7031 459.6563,658.1094 C459.7188,658.5156 459.75,658.6406 459.8906,658.7656 C460.0313,658.9063 460.2656,659.0156 460.4844,659.0156 C460.75,659.0156 461.0156,658.875 461.1875,658.6563 C461.2969,658.5 461.3281,658.3125 461.3281,657.8906 L461.3281,656.4688 C461.3281,656.0313 461.3125,655.9063 461.2188,655.75 C461.0625,655.4844 460.7813,655.3438 460.4844,655.3438 C460.1875,655.3438 459.9844,655.4375 459.7656,655.75 L459.5938,655.6719 Z "/><text fill="#000000" font-family="sans-serif" font-size="12" lengthAdjust="spacingAndGlyphs" textLength="73" x="477.75" y="664.1543">NotaMasAlta</text><line style="stroke: #A80036; stroke-width: 1.5;" x1="347" x2="649" y1="676" y2="676"/><line style="stroke: #A80036; stroke-width: 1.5;" x1="347" x2="649" y1="684" y2="684"/><text fill="#000000" font-family="sans-serif" font-size="11" lengthAdjust="spacingAndGlyphs" textLength="292" x="352" y="698.2104">Integer getNota(Examen examen, Integer puntaje)</text><!--MD5=[37e95b0e96f9533f7af01ee368678656]
class NotaReglaTres--><rect codeLine="34" fill="#FEFECE" filter="url(#fs1obykwgwog5)" height="60.8047" id="NotaReglaTres" style="stroke: #A80036; stroke-width: 1.5;" width="304" x="548" y="516.5"/><ellipse cx="652.25" cy="532.5" fill="#ADD1B2" rx="11" ry="11" style="stroke: #A80036; stroke-width: 1.0;"/><path d="M654.5938,528.1719 C653.6563,527.7344 653.0625,527.5938 652.1875,527.5938 C649.5625,527.5938 647.5625,529.6719 647.5625,532.3906 L647.5625,533.5156 C647.5625,536.0938 649.6719,537.9844 652.5625,537.9844 C653.7813,537.9844 654.9375,537.6875 655.6875,537.1406 C656.2656,536.7344 656.5938,536.2813 656.5938,535.8906 C656.5938,535.4375 656.2031,535.0469 655.7344,535.0469 C655.5156,535.0469 655.3125,535.125 655.125,535.3125 C654.6719,535.7969 654.6719,535.7969 654.4844,535.8906 C654.0625,536.1563 653.375,536.2813 652.6094,536.2813 C650.5625,536.2813 649.2656,535.1875 649.2656,533.4844 L649.2656,532.3906 C649.2656,530.6094 650.5156,529.2969 652.25,529.2969 C652.8281,529.2969 653.4375,529.4531 653.9063,529.7031 C654.3906,529.9844 654.5625,530.2031 654.6563,530.6094 C654.7188,531.0156 654.75,531.1406 654.8906,531.2656 C655.0313,531.4063 655.2656,531.5156 655.4844,531.5156 C655.75,531.5156 656.0156,531.375 656.1875,531.1563 C656.2969,531 656.3281,530.8125 656.3281,530.3906 L656.3281,528.9688 C656.3281,528.5313 656.3125,528.4063 656.2188,528.25 C656.0625,527.9844 655.7813,527.8438 655.4844,527.8438 C655.1875,527.8438 654.9844,527.9375 654.7656,528.25 L654.5938,528.1719 Z "/><text fill="#000000" font-family="sans-serif" font-size="12" lengthAdjust="spacingAndGlyphs" textLength="87" x="672.75" y="536.6543">NotaReglaTres</text><line style="stroke: #A80036; stroke-width: 1.5;" x1="549" x2="851" y1="548.5" y2="548.5"/><line style="stroke: #A80036; stroke-width: 1.5;" x1="549" x2="851" y1="556.5" y2="556.5"/><text fill="#000000" font-family="sans-serif" font-size="11" lengthAdjust="spacingAndGlyphs" textLength="292" x="554" y="570.7104">Integer getNota(Examen examen, Integer puntaje)</text><!--MD5=[435bb51cbaa68ac7ada69c1450f60c62]
class NotaResta--><rect codeLine="38" fill="#FEFECE" filter="url(#fs1obykwgwog5)" height="73.6094" id="NotaResta" style="stroke: #A80036; stroke-width: 1.5;" width="341" x="887.5" y="510"/><ellipse cx="1023.75" cy="526" fill="#ADD1B2" rx="11" ry="11" style="stroke: #A80036; stroke-width: 1.0;"/><path d="M1026.0938,521.6719 C1025.1563,521.2344 1024.5625,521.0938 1023.6875,521.0938 C1021.0625,521.0938 1019.0625,523.1719 1019.0625,525.8906 L1019.0625,527.0156 C1019.0625,529.5938 1021.1719,531.4844 1024.0625,531.4844 C1025.2813,531.4844 1026.4375,531.1875 1027.1875,530.6406 C1027.7656,530.2344 1028.0938,529.7813 1028.0938,529.3906 C1028.0938,528.9375 1027.7031,528.5469 1027.2344,528.5469 C1027.0156,528.5469 1026.8125,528.625 1026.625,528.8125 C1026.1719,529.2969 1026.1719,529.2969 1025.9844,529.3906 C1025.5625,529.6563 1024.875,529.7813 1024.1094,529.7813 C1022.0625,529.7813 1020.7656,528.6875 1020.7656,526.9844 L1020.7656,525.8906 C1020.7656,524.1094 1022.0156,522.7969 1023.75,522.7969 C1024.3281,522.7969 1024.9375,522.9531 1025.4063,523.2031 C1025.8906,523.4844 1026.0625,523.7031 1026.1563,524.1094 C1026.2188,524.5156 1026.25,524.6406 1026.3906,524.7656 C1026.5313,524.9063 1026.7656,525.0156 1026.9844,525.0156 C1027.25,525.0156 1027.5156,524.875 1027.6875,524.6563 C1027.7969,524.5 1027.8281,524.3125 1027.8281,523.8906 L1027.8281,522.4688 C1027.8281,522.0313 1027.8125,521.9063 1027.7188,521.75 C1027.5625,521.4844 1027.2813,521.3438 1026.9844,521.3438 C1026.6875,521.3438 1026.4844,521.4375 1026.2656,521.75 L1026.0938,521.6719 Z "/><text fill="#000000" font-family="sans-serif" font-size="12" lengthAdjust="spacingAndGlyphs" textLength="60" x="1044.25" y="530.1543">NotaResta</text><line style="stroke: #A80036; stroke-width: 1.5;" x1="888.5" x2="1227.5" y1="542" y2="542"/><text fill="#000000" font-family="sans-serif" font-size="11" lengthAdjust="spacingAndGlyphs" textLength="52" x="893.5" y="556.2104">Integer n</text><line style="stroke: #A80036; stroke-width: 1.5;" x1="888.5" x2="1227.5" y1="562.8047" y2="562.8047"/><text fill="#000000" font-family="sans-serif" font-size="11" lengthAdjust="spacingAndGlyphs" textLength="329" x="893.5" y="577.0151">public Integer getNota(Examen examen, Integer puntaje)</text><!--MD5=[79ad0571cfcede94047fc69d4da0359b]
class NotaTabla--><rect codeLine="43" fill="#FEFECE" filter="url(#fs1obykwgwog5)" height="73.6094" id="NotaTabla" style="stroke: #A80036; stroke-width: 1.5;" width="341" x="1263.5" y="510"/><ellipse cx="1400.25" cy="526" fill="#ADD1B2" rx="11" ry="11" style="stroke: #A80036; stroke-width: 1.0;"/><path d="M1402.5938,521.6719 C1401.6563,521.2344 1401.0625,521.0938 1400.1875,521.0938 C1397.5625,521.0938 1395.5625,523.1719 1395.5625,525.8906 L1395.5625,527.0156 C1395.5625,529.5938 1397.6719,531.4844 1400.5625,531.4844 C1401.7813,531.4844 1402.9375,531.1875 1403.6875,530.6406 C1404.2656,530.2344 1404.5938,529.7813 1404.5938,529.3906 C1404.5938,528.9375 1404.2031,528.5469 1403.7344,528.5469 C1403.5156,528.5469 1403.3125,528.625 1403.125,528.8125 C1402.6719,529.2969 1402.6719,529.2969 1402.4844,529.3906 C1402.0625,529.6563 1401.375,529.7813 1400.6094,529.7813 C1398.5625,529.7813 1397.2656,528.6875 1397.2656,526.9844 L1397.2656,525.8906 C1397.2656,524.1094 1398.5156,522.7969 1400.25,522.7969 C1400.8281,522.7969 1401.4375,522.9531 1401.9063,523.2031 C1402.3906,523.4844 1402.5625,523.7031 1402.6563,524.1094 C1402.7188,524.5156 1402.75,524.6406 1402.8906,524.7656 C1403.0313,524.9063 1403.2656,525.0156 1403.4844,525.0156 C1403.75,525.0156 1404.0156,524.875 1404.1875,524.6563 C1404.2969,524.5 1404.3281,524.3125 1404.3281,523.8906 L1404.3281,522.4688 C1404.3281,522.0313 1404.3125,521.9063 1404.2188,521.75 C1404.0625,521.4844 1403.7813,521.3438 1403.4844,521.3438 C1403.1875,521.3438 1402.9844,521.4375 1402.7656,521.75 L1402.5938,521.6719 Z "/><text fill="#000000" font-family="sans-serif" font-size="12" lengthAdjust="spacingAndGlyphs" textLength="59" x="1420.75" y="530.1543">NotaTabla</text><line style="stroke: #A80036; stroke-width: 1.5;" x1="1264.5" x2="1603.5" y1="542" y2="542"/><text fill="#000000" font-family="sans-serif" font-size="11" lengthAdjust="spacingAndGlyphs" textLength="226" x="1269.5" y="556.2104">Map&lt;Integer, Integer&gt; tablaConversion</text><line style="stroke: #A80036; stroke-width: 1.5;" x1="1264.5" x2="1603.5" y1="562.8047" y2="562.8047"/><text fill="#000000" font-family="sans-serif" font-size="11" lengthAdjust="spacingAndGlyphs" textLength="329" x="1269.5" y="577.0151">public Integer getNota(Examen examen, Integer puntaje)</text><!--MD5=[d6e1f764822246590ccf1a43095c716b]
class Pregunta--><rect codeLine="53" fill="#FEFECE" filter="url(#fs1obykwgwog5)" height="99.2188" id="Pregunta" style="stroke: #A80036; stroke-width: 1.5;" width="227" x="1428.5" y="351"/><ellipse cx="1511.75" cy="367" fill="#ADD1B2" rx="11" ry="11" style="stroke: #A80036; stroke-width: 1.0;"/><path d="M1514.0938,362.6719 C1513.1563,362.2344 1512.5625,362.0938 1511.6875,362.0938 C1509.0625,362.0938 1507.0625,364.1719 1507.0625,366.8906 L1507.0625,368.0156 C1507.0625,370.5938 1509.1719,372.4844 1512.0625,372.4844 C1513.2813,372.4844 1514.4375,372.1875 1515.1875,371.6406 C1515.7656,371.2344 1516.0938,370.7813 1516.0938,370.3906 C1516.0938,369.9375 1515.7031,369.5469 1515.2344,369.5469 C1515.0156,369.5469 1514.8125,369.625 1514.625,369.8125 C1514.1719,370.2969 1514.1719,370.2969 1513.9844,370.3906 C1513.5625,370.6563 1512.875,370.7813 1512.1094,370.7813 C1510.0625,370.7813 1508.7656,369.6875 1508.7656,367.9844 L1508.7656,366.8906 C1508.7656,365.1094 1510.0156,363.7969 1511.75,363.7969 C1512.3281,363.7969 1512.9375,363.9531 1513.4063,364.2031 C1513.8906,364.4844 1514.0625,364.7031 1514.1563,365.1094 C1514.2188,365.5156 1514.25,365.6406 1514.3906,365.7656 C1514.5313,365.9063 1514.7656,366.0156 1514.9844,366.0156 C1515.25,366.0156 1515.5156,365.875 1515.6875,365.6563 C1515.7969,365.5 1515.8281,365.3125 1515.8281,364.8906 L1515.8281,363.4688 C1515.8281,363.0313 1515.8125,362.9063 1515.7188,362.75 C1515.5625,362.4844 1515.2813,362.3438 1514.9844,362.3438 C1514.6875,362.3438 1514.4844,362.4375 1514.2656,362.75 L1514.0938,362.6719 Z "/><text fill="#000000" font-family="sans-serif" font-size="12" lengthAdjust="spacingAndGlyphs" textLength="52" x="1532.25" y="371.1543">Pregunta</text><line style="stroke: #A80036; stroke-width: 1.5;" x1="1429.5" x2="1654.5" y1="383" y2="383"/><text fill="#000000" font-family="sans-serif" font-size="11" lengthAdjust="spacingAndGlyphs" textLength="73" x="1434.5" y="397.2104">Integer peso</text><text fill="#000000" font-family="sans-serif" font-size="11" lengthAdjust="spacingAndGlyphs" textLength="88" x="1434.5" y="410.0151">String pregunta</text><text fill="#000000" font-family="sans-serif" font-size="11" lengthAdjust="spacingAndGlyphs" textLength="94" x="1434.5" y="422.8198">String respuesta</text><line style="stroke: #A80036; stroke-width: 1.5;" x1="1429.5" x2="1654.5" y1="429.4141" y2="429.4141"/><text fill="#000000" font-family="sans-serif" font-size="11" lengthAdjust="spacingAndGlyphs" textLength="215" x="1434.5" y="443.6245">Boolean esCorrecta(String respuesta)</text><!--MD5=[af6c6c970e5b47f5d0791d9b586c74c6]
class PreguntaMultipleChoice--><rect codeLine="61" fill="#FEFECE" filter="url(#fs1obykwgwog5)" height="60.8047" id="PreguntaMultipleChoice" style="stroke: #A80036; stroke-width: 1.5;" width="171" x="1639.5" y="516.5"/><ellipse cx="1654.5" cy="532.5" fill="#ADD1B2" rx="11" ry="11" style="stroke: #A80036; stroke-width: 1.0;"/><path d="M1656.8438,528.1719 C1655.9063,527.7344 1655.3125,527.5938 1654.4375,527.5938 C1651.8125,527.5938 1649.8125,529.6719 1649.8125,532.3906 L1649.8125,533.5156 C1649.8125,536.0938 1651.9219,537.9844 1654.8125,537.9844 C1656.0313,537.9844 1657.1875,537.6875 1657.9375,537.1406 C1658.5156,536.7344 1658.8438,536.2813 1658.8438,535.8906 C1658.8438,535.4375 1658.4531,535.0469 1657.9844,535.0469 C1657.7656,535.0469 1657.5625,535.125 1657.375,535.3125 C1656.9219,535.7969 1656.9219,535.7969 1656.7344,535.8906 C1656.3125,536.1563 1655.625,536.2813 1654.8594,536.2813 C1652.8125,536.2813 1651.5156,535.1875 1651.5156,533.4844 L1651.5156,532.3906 C1651.5156,530.6094 1652.7656,529.2969 1654.5,529.2969 C1655.0781,529.2969 1655.6875,529.4531 1656.1563,529.7031 C1656.6406,529.9844 1656.8125,530.2031 1656.9063,530.6094 C1656.9688,531.0156 1657,531.1406 1657.1406,531.2656 C1657.2813,531.4063 1657.5156,531.5156 1657.7344,531.5156 C1658,531.5156 1658.2656,531.375 1658.4375,531.1563 C1658.5469,531 1658.5781,530.8125 1658.5781,530.3906 L1658.5781,528.9688 C1658.5781,528.5313 1658.5625,528.4063 1658.4688,528.25 C1658.3125,527.9844 1658.0313,527.8438 1657.7344,527.8438 C1657.4375,527.8438 1657.2344,527.9375 1657.0156,528.25 L1656.8438,528.1719 Z "/><text fill="#000000" font-family="sans-serif" font-size="12" lengthAdjust="spacingAndGlyphs" textLength="139" x="1668.5" y="536.6543">PreguntaMultipleChoice</text><line style="stroke: #A80036; stroke-width: 1.5;" x1="1640.5" x2="1809.5" y1="548.5" y2="548.5"/><text fill="#000000" font-family="sans-serif" font-size="11" lengthAdjust="spacingAndGlyphs" textLength="125" x="1645.5" y="562.7104">List&lt;String&gt; opciones</text><line style="stroke: #A80036; stroke-width: 1.5;" x1="1640.5" x2="1809.5" y1="569.3047" y2="569.3047"/><!--MD5=[a765bc4a47ec09d051d942e780a1d33c]
class PreguntaVF--><rect codeLine="65" fill="#FEFECE" filter="url(#fs1obykwgwog5)" height="48" id="PreguntaVF" style="stroke: #A80036; stroke-width: 1.5;" width="99" x="1675.5" y="650.5"/><ellipse cx="1690.5" cy="666.5" fill="#ADD1B2" rx="11" ry="11" style="stroke: #A80036; stroke-width: 1.0;"/><path d="M1692.8438,662.1719 C1691.9063,661.7344 1691.3125,661.5938 1690.4375,661.5938 C1687.8125,661.5938 1685.8125,663.6719 1685.8125,666.3906 L1685.8125,667.5156 C1685.8125,670.0938 1687.9219,671.9844 1690.8125,671.9844 C1692.0313,671.9844 1693.1875,671.6875 1693.9375,671.1406 C1694.5156,670.7344 1694.8438,670.2813 1694.8438,669.8906 C1694.8438,669.4375 1694.4531,669.0469 1693.9844,669.0469 C1693.7656,669.0469 1693.5625,669.125 1693.375,669.3125 C1692.9219,669.7969 1692.9219,669.7969 1692.7344,669.8906 C1692.3125,670.1563 1691.625,670.2813 1690.8594,670.2813 C1688.8125,670.2813 1687.5156,669.1875 1687.5156,667.4844 L1687.5156,666.3906 C1687.5156,664.6094 1688.7656,663.2969 1690.5,663.2969 C1691.0781,663.2969 1691.6875,663.4531 1692.1563,663.7031 C1692.6406,663.9844 1692.8125,664.2031 1692.9063,664.6094 C1692.9688,665.0156 1693,665.1406 1693.1406,665.2656 C1693.2813,665.4063 1693.5156,665.5156 1693.7344,665.5156 C1694,665.5156 1694.2656,665.375 1694.4375,665.1563 C1694.5469,665 1694.5781,664.8125 1694.5781,664.3906 L1694.5781,662.9688 C1694.5781,662.5313 1694.5625,662.4063 1694.4688,662.25 C1694.3125,661.9844 1694.0313,661.8438 1693.7344,661.8438 C1693.4375,661.8438 1693.2344,661.9375 1693.0156,662.25 L1692.8438,662.1719 Z "/><text fill="#000000" font-family="sans-serif" font-size="12" lengthAdjust="spacingAndGlyphs" textLength="67" x="1704.5" y="670.6543">PreguntaVF</text><line style="stroke: #A80036; stroke-width: 1.5;" x1="1676.5" x2="1773.5" y1="682.5" y2="682.5"/><line style="stroke: #A80036; stroke-width: 1.5;" x1="1676.5" x2="1773.5" y1="690.5" y2="690.5"/><!--MD5=[b7daf4323c4f1e94c7d3907eb5af2203]
class RespuestaPregunta--><rect codeLine="68" fill="#FEFECE" filter="url(#fs1obykwgwog5)" height="86.4141" id="RespuestaPregunta" style="stroke: #A80036; stroke-width: 1.5;" width="178" x="1453" y="205"/><ellipse cx="1481.95" cy="221" fill="#ADD1B2" rx="11" ry="11" style="stroke: #A80036; stroke-width: 1.0;"/><path d="M1484.2938,216.6719 C1483.3563,216.2344 1482.7625,216.0938 1481.8875,216.0938 C1479.2625,216.0938 1477.2625,218.1719 1477.2625,220.8906 L1477.2625,222.0156 C1477.2625,224.5938 1479.3719,226.4844 1482.2625,226.4844 C1483.4813,226.4844 1484.6375,226.1875 1485.3875,225.6406 C1485.9656,225.2344 1486.2938,224.7813 1486.2938,224.3906 C1486.2938,223.9375 1485.9031,223.5469 1485.4344,223.5469 C1485.2156,223.5469 1485.0125,223.625 1484.825,223.8125 C1484.3719,224.2969 1484.3719,224.2969 1484.1844,224.3906 C1483.7625,224.6563 1483.075,224.7813 1482.3094,224.7813 C1480.2625,224.7813 1478.9656,223.6875 1478.9656,221.9844 L1478.9656,220.8906 C1478.9656,219.1094 1480.2156,217.7969 1481.95,217.7969 C1482.5281,217.7969 1483.1375,217.9531 1483.6063,218.2031 C1484.0906,218.4844 1484.2625,218.7031 1484.3563,219.1094 C1484.4188,219.5156 1484.45,219.6406 1484.5906,219.7656 C1484.7313,219.9063 1484.9656,220.0156 1485.1844,220.0156 C1485.45,220.0156 1485.7156,219.875 1485.8875,219.6563 C1485.9969,219.5 1486.0281,219.3125 1486.0281,218.8906 L1486.0281,217.4688 C1486.0281,217.0313 1486.0125,216.9063 1485.9188,216.75 C1485.7625,216.4844 1485.4813,216.3438 1485.1844,216.3438 C1484.8875,216.3438 1484.6844,216.4375 1484.4656,216.75 L1484.2938,216.6719 Z "/><text fill="#000000" font-family="sans-serif" font-size="12" lengthAdjust="spacingAndGlyphs" textLength="115" x="1499.05" y="225.1543">RespuestaPregunta</text><line style="stroke: #A80036; stroke-width: 1.5;" x1="1454" x2="1630" y1="237" y2="237"/><text fill="#000000" font-family="sans-serif" font-size="11" lengthAdjust="spacingAndGlyphs" textLength="105" x="1459" y="251.2104">Pregunta pregunta</text><text fill="#000000" font-family="sans-serif" font-size="11" lengthAdjust="spacingAndGlyphs" textLength="94" x="1459" y="264.0151">String respuesta</text><line style="stroke: #A80036; stroke-width: 1.5;" x1="1454" x2="1630" y1="270.6094" y2="270.6094"/><text fill="#000000" font-family="sans-serif" font-size="11" lengthAdjust="spacingAndGlyphs" textLength="166" x="1459" y="284.8198">Integer getPuntajeObtenido()</text><!--MD5=[ab25356fa80eb14da8b3104403612ef8]
reverse link CriterioCompuesto to NotaPromedio--><path d="M263.061,596.224 C241.473,612.2553 218.082,629.6254 198.955,643.8291 " fill="none" id="CriterioCompuesto&lt;-NotaPromedio" style="stroke: #A80036; stroke-width: 1.0;"/><polygon fill="none" points="258.888,590.604,279.118,584.3,267.235,601.844,258.888,590.604" style="stroke: #A80036; stroke-width: 1.0;"/><!--MD5=[1f0a21c84dc4a2090fee567a9a306420]
reverse link CriterioCompuesto to NotaMasAlta--><path d="M393.323,596.224 C415.039,612.2553 438.568,629.6254 457.808,643.8291 " fill="none" id="CriterioCompuesto&lt;-NotaMasAlta" style="stroke: #A80036; stroke-width: 1.0;"/><polygon fill="none" points="389.104,601.81,377.171,584.3,397.419,590.547,389.104,601.81" style="stroke: #A80036; stroke-width: 1.0;"/><!--MD5=[d8f3e7af67f9a3fe5dd4646163270421]
reverse link CriterioNota to NotaReglaTres--><path d="M965.89,438.678 C905.983,462.859 828.933,493.959 773.212,516.449 " fill="none" id="CriterioNota&lt;-NotaReglaTres" style="stroke: #A80036; stroke-width: 1.0; stroke-dasharray: 7.0,7.0;"/><polygon fill="none" points="963.523,432.085,984.689,431.09,968.763,445.067,963.523,432.085" style="stroke: #A80036; stroke-width: 1.0;"/><!--MD5=[602cc8e579b8ded999d49c6aa6669768]
reverse link CriterioNota to NotaResta--><path d="M1058,451.124 C1058,470.389 1058,492.04 1058,509.79 " fill="none" id="CriterioNota&lt;-NotaResta" style="stroke: #A80036; stroke-width: 1.0; stroke-dasharray: 7.0,7.0;"/><polygon fill="none" points="1051,451.09,1058,431.09,1065,451.09,1051,451.09" style="stroke: #A80036; stroke-width: 1.0;"/><!--MD5=[a35c22faff0f6e8b7c6302bfc8fc23e9]
reverse link CriterioNota to NotaTabla--><path d="M1153.77,438.304 C1210.95,460.281 1283.27,488.075 1340.12,509.922 " fill="none" id="CriterioNota&lt;-NotaTabla" style="stroke: #A80036; stroke-width: 1.0; stroke-dasharray: 7.0,7.0;"/><polygon fill="none" points="1151.15,444.799,1135,431.09,1156.18,431.731,1151.15,444.799" style="stroke: #A80036; stroke-width: 1.0;"/><!--MD5=[fa1f466ddeea2b78643a52eda88aaaa2]
reverse link CriterioNota to CriterioCompuesto--><path d="M889.277,434.898 C775.808,457.359 626.316,486.95 510.145,509.945 " fill="none" id="CriterioNota&lt;-CriterioCompuesto" style="stroke: #A80036; stroke-width: 1.0; stroke-dasharray: 7.0,7.0;"/><polygon fill="none" points="887.975,428.02,908.953,431.003,890.693,441.754,887.975,428.02" style="stroke: #A80036; stroke-width: 1.0;"/><!--MD5=[1d86cdf937d899eb5668cc332b30a2b1]
reverse link Pregunta to PreguntaMultipleChoice--><path d="M1619.46,462.663 C1643,481.25 1667.81,500.839 1687.45,516.352 " fill="none" id="Pregunta&lt;-PreguntaMultipleChoice" style="stroke: #A80036; stroke-width: 1.0;"/><polygon fill="none" points="1614.8,467.907,1603.45,450.018,1623.48,456.919,1614.8,467.907" style="stroke: #A80036; stroke-width: 1.0;"/><!--MD5=[6284e89b4e2227d7b9d33ce4c12ecbf6]
reverse link PreguntaMultipleChoice to PreguntaVF--><path d="M1725,597.901 C1725,615.9795 1725,635.5449 1725,650.2412 " fill="none" id="PreguntaMultipleChoice&lt;-PreguntaVF" style="stroke: #A80036; stroke-width: 1.0;"/><polygon fill="none" points="1718,597.742,1725,577.742,1732,597.742,1718,597.742" style="stroke: #A80036; stroke-width: 1.0;"/><!--MD5=[b9b0fd1663f3572d0feac5bf30c1136e]
link Examen to Pregunta--><path codeLine="75" d="M1395.1,291.123 C1418.83,308.632 1446.62,329.131 1471.6,347.561 " fill="none" id="Examen-&gt;Pregunta" style="stroke: #A80036; stroke-width: 1.0;"/><polygon fill="#A80036" points="1475.9,350.737,1471.0372,342.1723,1471.8782,347.7663,1466.2842,348.6073,1475.9,350.737" style="stroke: #A80036; stroke-width: 1.0;"/><text fill="#000000" font-family="sans-serif" font-size="13" lengthAdjust="spacingAndGlyphs" textLength="7" x="1459.5475" y="340.1034">*</text><!--MD5=[60d14642b85d7db648300bca30aab398]
link Examen to CriterioNota--><path codeLine="76" d="M1259.63,291.123 C1214.68,315.287 1159.13,345.144 1117.72,367.398 " fill="none" id="Examen-&gt;CriterioNota" style="stroke: #A80036; stroke-width: 1.0;"/><polygon fill="#A80036" points="1113.26,369.8,1123.0807,369.0552,1117.6624,367.4296,1119.288,362.0113,1113.26,369.8" style="stroke: #A80036; stroke-width: 1.0;"/><!--MD5=[c2afdb255f71e259c78da7725a2462dc]
link ExamenResuelto to Alumno--><path codeLine="77" d="M1273.04,145.166 C1250.6,168.721 1226.44,194.073 1207.84,213.589 " fill="none" id="ExamenResuelto-&gt;Alumno" style="stroke: #A80036; stroke-width: 1.0;"/><polygon fill="#A80036" points="1204.2,217.413,1213.3069,213.6628,1207.6516,213.7955,1207.5189,208.1402,1204.2,217.413" style="stroke: #A80036; stroke-width: 1.0;"/><!--MD5=[6552fe5158847c95bdd6103b5d76e82d]
link ExamenResuelto to Examen--><path codeLine="78" d="M1338,145.166 C1338,163.416 1338,182.744 1338,199.601 " fill="none" id="ExamenResuelto-&gt;Examen" style="stroke: #A80036; stroke-width: 1.0;"/><polygon fill="#A80036" points="1338,204.749,1342,195.749,1338,199.749,1334,195.749,1338,204.749" style="stroke: #A80036; stroke-width: 1.0;"/><!--MD5=[8213c5276aaa89b67671d95b01787c0b]
link ExamenResuelto to RespuestaPregunta--><path codeLine="79" d="M1419.8,145.166 C1442.65,164.21 1466.92,184.429 1487.75,201.789 " fill="none" id="ExamenResuelto-&gt;RespuestaPregunta" style="stroke: #A80036; stroke-width: 1.0;"/><polygon fill="#A80036" points="1491.6,204.996,1487.2451,196.1623,1487.7583,201.7958,1482.1248,202.309,1491.6,204.996" style="stroke: #A80036; stroke-width: 1.0;"/><text fill="#000000" font-family="sans-serif" font-size="13" lengthAdjust="spacingAndGlyphs" textLength="7" x="1476.0097" y="193.9914">*</text><!--MD5=[4ecb775be750d4ebe61ac65d8258be4e]
link RespuestaPregunta to Pregunta--><path codeLine="80" d="M1542,291.323 C1542,308.25 1542,327.946 1542,345.858 " fill="none" id="RespuestaPregunta-&gt;Pregunta" style="stroke: #A80036; stroke-width: 1.0;"/><polygon fill="#A80036" points="1542,350.859,1546,341.859,1542,345.859,1538,341.859,1542,350.859" style="stroke: #A80036; stroke-width: 1.0;"/><!--MD5=[b57b8222c2e0186e5b911f56adf02198]
@startuml
class Alumno {
    String nombre
}

class Examen {
    List<Pregunta> preguntas
    Integer notaMinima
    CriterioNota criterioNota
}

class ExamenResuelto {
    Alumno alumno
    Examen examen
    List<RespuestaPregunta> respuestas

    void addRespuesta(Pregunta pregunta, String respuesta)
    Integer getPuntaje()
    Integer getNota()
    Boolean aprobado()
}

interface CriterioNota {
    Integer getNota(Examen examen, Integer puntaje)
}

class NotaPromedio extends CriterioCompuesto {
    Integer getNota(Examen examen, Integer puntaje)
}

class NotaMasAlta extends CriterioCompuesto {
    Integer getNota(Examen examen, Integer puntaje)
}

class NotaReglaTres implements CriterioNota {
    Integer getNota(Examen examen, Integer puntaje)
}

class NotaResta implements CriterioNota {
    Integer n
    public Integer getNota(Examen examen, Integer puntaje)
}

class NotaTabla implements CriterioNota {
    Map<Integer, Integer> tablaConversion
    public Integer getNota(Examen examen, Integer puntaje)
}

abstract class CriterioCompuesto implements CriterioNota {
    List<CriterioNota> criterios
    IntStream notasDeCriterios(Examen examen, Integer puntaje)
}

class Pregunta {
    Integer peso
    String pregunta
    String respuesta

    Boolean esCorrecta(String respuesta)
}

class PreguntaMultipleChoice extends Pregunta {
    List<String> opciones
}

class PreguntaVF extends PreguntaMultipleChoice {
}

class RespuestaPregunta {
    Pregunta pregunta
    String respuesta
    Integer getPuntajeObtenido()
}


Examen - -> "*"Pregunta
Examen - -> CriterioNota
ExamenResuelto - -> Alumno
ExamenResuelto - -> Examen
ExamenResuelto - -> "*"RespuestaPregunta
RespuestaPregunta - -> Pregunta
@enduml

PlantUML version 1.2020.16beta3(Unknown compile time)
(GPL source distribution)
Java Runtime: Java(TM) SE Runtime Environment
JVM: Java HotSpot(TM) 64-Bit Server VM
Default Encoding: UTF-8
Language: en
Country: US
--></g></svg>